ISO-10303-21;
HEADER;
FILE_DESCRIPTION(('STEP AP242'),'1');
FILE_NAME('2042860001.stp','2026-06-16T11:08:43',('TraceParts'),('TraceParts S.A.S.'),'Spatial InterOp 3D',' ',' ');
FILE_SCHEMA(('AP242_MANAGED_MODEL_BASED_3D_ENGINEERING_MIM_LF  {1 0 10303 442 1 1 4}'));
ENDSEC;
DATA;
#1=MECHANICAL_DESIGN_GEOMETRIC_PRESENTATION_REPRESENTATION(' ',(#10,#11,#12,#13,#14,#15,#16,#17,#18,#19,#20,#21,#22,#23,#24,#25,#26,#27,#28,#29,#30,#31,#32,#33,#34,#35,#36,#37,#38,#39,#40,#41,#42,#43,#44,#45,#46,#47,#48,#49,#50,#51,#52,#53,#54,#55,#56,#57,#58,#59,#60,#61,#62,#63,#64,#65),#6);
#2=PRODUCT_DEFINITION_CONTEXT('',#66,'design');
#3=APPLICATION_PROTOCOL_DEFINITION('INTERNATIONAL STANDARD','ap242_managed_model_based_3d_engineering',2014,#66);
#4=PRODUCT_CATEGORY_RELATIONSHIP('NONE','NONE',#67,#68);
#5=SHAPE_DEFINITION_REPRESENTATION(#69,#70);
#6= (GEOMETRIC_REPRESENTATION_CONTEXT(3)GLOBAL_UNCERTAINTY_ASSIGNED_CONTEXT((#73))GLOBAL_UNIT_ASSIGNED_CONTEXT((#75,#76,#77))REPRESENTATION_CONTEXT('NONE','WORKSPACE'));
#10=STYLED_ITEM('',(#79),#80);
#11=STYLED_ITEM('',(#81),#82);
#12=STYLED_ITEM('',(#83),#84);
#13=STYLED_ITEM('',(#85),#86);
#14=STYLED_ITEM('',(#87),#88);
#15=STYLED_ITEM('',(#89),#90);
#16=STYLED_ITEM('',(#91),#92);
#17=STYLED_ITEM('',(#93),#94);
#18=STYLED_ITEM('',(#95),#96);
#19=STYLED_ITEM('',(#97),#98);
#20=STYLED_ITEM('',(#99),#100);
#21=STYLED_ITEM('',(#101),#102);
#22=STYLED_ITEM('',(#103),#104);
#23=STYLED_ITEM('',(#105),#106);
#24=STYLED_ITEM('',(#107),#108);
#25=STYLED_ITEM('',(#109),#110);
#26=STYLED_ITEM('',(#111),#112);
#27=STYLED_ITEM('',(#113),#114);
#28=STYLED_ITEM('',(#115),#116);
#29=STYLED_ITEM('',(#117),#118);
#30=STYLED_ITEM('',(#119),#120);
#31=STYLED_ITEM('',(#121),#122);
#32=STYLED_ITEM('',(#123),#124);
#33=STYLED_ITEM('',(#125),#126);
#34=STYLED_ITEM('',(#127),#128);
#35=STYLED_ITEM('',(#129),#130);
#36=STYLED_ITEM('',(#131),#132);
#37=STYLED_ITEM('',(#133),#134);
#38=STYLED_ITEM('',(#135),#136);
#39=STYLED_ITEM('',(#137),#138);
#40=STYLED_ITEM('',(#139),#140);
#41=STYLED_ITEM('',(#141),#142);
#42=STYLED_ITEM('',(#143),#144);
#43=STYLED_ITEM('',(#145),#146);
#44=STYLED_ITEM('',(#147),#148);
#45=STYLED_ITEM('',(#149),#150);
#46=STYLED_ITEM('',(#151),#152);
#47=STYLED_ITEM('',(#153),#154);
#48=STYLED_ITEM('',(#155),#156);
#49=STYLED_ITEM('',(#157),#158);
#50=STYLED_ITEM('',(#159),#160);
#51=STYLED_ITEM('',(#161),#162);
#52=STYLED_ITEM('',(#163),#164);
#53=STYLED_ITEM('',(#165),#166);
#54=STYLED_ITEM('',(#167),#168);
#55=STYLED_ITEM('',(#169),#170);
#56=STYLED_ITEM('',(#171),#172);
#57=STYLED_ITEM('',(#173),#174);
#58=STYLED_ITEM('',(#175),#176);
#59=STYLED_ITEM('',(#177),#178);
#60=STYLED_ITEM('',(#179),#180);
#61=STYLED_ITEM('',(#181),#182);
#62=STYLED_ITEM('',(#183),#184);
#63=STYLED_ITEM('',(#185),#186);
#64=STYLED_ITEM('',(#187),#188);
#65=STYLED_ITEM('',(#189),#190);
#66=APPLICATION_CONTEXT('managed model based 3d engineering');
#67=PRODUCT_CATEGORY('part','NONE');
#68=PRODUCT_RELATED_PRODUCT_CATEGORY('detail',' ',(#191));
#69=PRODUCT_DEFINITION_SHAPE('NONE','NONE',#192);
#70=ADVANCED_BREP_SHAPE_REPRESENTATION('1',(#190,#193),#6);
#73=UNCERTAINTY_MEASURE_WITH_UNIT(LENGTH_MEASURE(1.0E-06),#75,'','');
#75= (CONVERSION_BASED_UNIT('MILLIMETRE',#196)LENGTH_UNIT()NAMED_UNIT(#199));
#76= (NAMED_UNIT(#201)PLANE_ANGLE_UNIT()SI_UNIT($,.RADIAN.));
#77= (NAMED_UNIT(#201)SOLID_ANGLE_UNIT()SI_UNIT($,.STERADIAN.));
#79=PRESENTATION_STYLE_ASSIGNMENT((#207));
#80=ADVANCED_FACE('',(#208),#209,.F.);
#81=PRESENTATION_STYLE_ASSIGNMENT((#210));
#82=ADVANCED_FACE('',(#211),#212,.T.);
#83=PRESENTATION_STYLE_ASSIGNMENT((#213));
#84=ADVANCED_FACE('',(#214),#215,.T.);
#85=PRESENTATION_STYLE_ASSIGNMENT((#216));
#86=ADVANCED_FACE('',(#217),#218,.F.);
#87=PRESENTATION_STYLE_ASSIGNMENT((#219));
#88=ADVANCED_FACE('',(#220),#221,.F.);
#89=PRESENTATION_STYLE_ASSIGNMENT((#222));
#90=ADVANCED_FACE('',(#223),#224,.F.);
#91=PRESENTATION_STYLE_ASSIGNMENT((#225));
#92=ADVANCED_FACE('',(#226,#227),#228,.F.);
#93=PRESENTATION_STYLE_ASSIGNMENT((#229));
#94=ADVANCED_FACE('',(#230),#231,.T.);
#95=PRESENTATION_STYLE_ASSIGNMENT((#232));
#96=ADVANCED_FACE('',(#233),#234,.T.);
#97=PRESENTATION_STYLE_ASSIGNMENT((#235));
#98=ADVANCED_FACE('',(#236),#237,.T.);
#99=PRESENTATION_STYLE_ASSIGNMENT((#238));
#100=ADVANCED_FACE('',(#239),#240,.T.);
#101=PRESENTATION_STYLE_ASSIGNMENT((#241));
#102=ADVANCED_FACE('',(#242),#243,.T.);
#103=PRESENTATION_STYLE_ASSIGNMENT((#244));
#104=ADVANCED_FACE('',(#245),#246,.T.);
#105=PRESENTATION_STYLE_ASSIGNMENT((#247));
#106=ADVANCED_FACE('',(#248),#249,.F.);
#107=PRESENTATION_STYLE_ASSIGNMENT((#250));
#108=ADVANCED_FACE('',(#251),#252,.F.);
#109=PRESENTATION_STYLE_ASSIGNMENT((#253));
#110=ADVANCED_FACE('',(#254),#255,.F.);
#111=PRESENTATION_STYLE_ASSIGNMENT((#256));
#112=ADVANCED_FACE('',(#257),#258,.F.);
#113=PRESENTATION_STYLE_ASSIGNMENT((#259));
#114=ADVANCED_FACE('',(#260),#261,.F.);
#115=PRESENTATION_STYLE_ASSIGNMENT((#262));
#116=ADVANCED_FACE('',(#263,#264),#265,.F.);
#117=PRESENTATION_STYLE_ASSIGNMENT((#266));
#118=ADVANCED_FACE('',(#267),#268,.T.);
#119=PRESENTATION_STYLE_ASSIGNMENT((#269));
#120=ADVANCED_FACE('',(#270),#271,.T.);
#121=PRESENTATION_STYLE_ASSIGNMENT((#272));
#122=ADVANCED_FACE('',(#273),#274,.T.);
#123=PRESENTATION_STYLE_ASSIGNMENT((#275));
#124=ADVANCED_FACE('',(#276),#277,.T.);
#125=PRESENTATION_STYLE_ASSIGNMENT((#278));
#126=ADVANCED_FACE('',(#279,#280),#281,.T.);
#127=PRESENTATION_STYLE_ASSIGNMENT((#282));
#128=ADVANCED_FACE('',(#283,#284),#285,.T.);
#129=PRESENTATION_STYLE_ASSIGNMENT((#286));
#130=ADVANCED_FACE('',(#287),#288,.F.);
#131=PRESENTATION_STYLE_ASSIGNMENT((#289));
#132=ADVANCED_FACE('',(#290),#291,.F.);
#133=PRESENTATION_STYLE_ASSIGNMENT((#292));
#134=ADVANCED_FACE('',(#293),#294,.F.);
#135=PRESENTATION_STYLE_ASSIGNMENT((#295));
#136=ADVANCED_FACE('',(#296),#297,.F.);
#137=PRESENTATION_STYLE_ASSIGNMENT((#298));
#138=ADVANCED_FACE('',(#299),#300,.F.);
#139=PRESENTATION_STYLE_ASSIGNMENT((#301));
#140=ADVANCED_FACE('',(#302),#303,.F.);
#141=PRESENTATION_STYLE_ASSIGNMENT((#304));
#142=ADVANCED_FACE('',(#305),#306,.F.);
#143=PRESENTATION_STYLE_ASSIGNMENT((#307));
#144=ADVANCED_FACE('',(#308),#309,.F.);
#145=PRESENTATION_STYLE_ASSIGNMENT((#310));
#146=ADVANCED_FACE('',(#311),#312,.F.);
#147=PRESENTATION_STYLE_ASSIGNMENT((#313));
#148=ADVANCED_FACE('',(#314),#315,.F.);
#149=PRESENTATION_STYLE_ASSIGNMENT((#316));
#150=ADVANCED_FACE('',(#317),#318,.F.);
#151=PRESENTATION_STYLE_ASSIGNMENT((#319));
#152=ADVANCED_FACE('',(#320),#321,.F.);
#153=PRESENTATION_STYLE_ASSIGNMENT((#322));
#154=ADVANCED_FACE('',(#323),#324,.F.);
#155=PRESENTATION_STYLE_ASSIGNMENT((#325));
#156=ADVANCED_FACE('',(#326),#327,.F.);
#157=PRESENTATION_STYLE_ASSIGNMENT((#328));
#158=ADVANCED_FACE('',(#329,#330),#331,.T.);
#159=PRESENTATION_STYLE_ASSIGNMENT((#332));
#160=ADVANCED_FACE('',(#333),#334,.T.);
#161=PRESENTATION_STYLE_ASSIGNMENT((#335));
#162=ADVANCED_FACE('',(#336),#337,.T.);
#163=PRESENTATION_STYLE_ASSIGNMENT((#338));
#164=ADVANCED_FACE('',(#339),#340,.F.);
#165=PRESENTATION_STYLE_ASSIGNMENT((#341));
#166=ADVANCED_FACE('',(#342),#343,.T.);
#167=PRESENTATION_STYLE_ASSIGNMENT((#344));
#168=ADVANCED_FACE('',(#345,#346),#347,.T.);
#169=PRESENTATION_STYLE_ASSIGNMENT((#348));
#170=ADVANCED_FACE('',(#349),#350,.T.);
#171=PRESENTATION_STYLE_ASSIGNMENT((#351));
#172=ADVANCED_FACE('',(#352),#353,.T.);
#173=PRESENTATION_STYLE_ASSIGNMENT((#354));
#174=ADVANCED_FACE('',(#355),#356,.T.);
#175=PRESENTATION_STYLE_ASSIGNMENT((#357));
#176=ADVANCED_FACE('',(#358,#359),#360,.T.);
#177=PRESENTATION_STYLE_ASSIGNMENT((#361));
#178=ADVANCED_FACE('',(#362),#363,.T.);
#179=PRESENTATION_STYLE_ASSIGNMENT((#364));
#180=ADVANCED_FACE('',(#365),#366,.F.);
#181=PRESENTATION_STYLE_ASSIGNMENT((#367));
#182=ADVANCED_FACE('',(#368),#369,.T.);
#183=PRESENTATION_STYLE_ASSIGNMENT((#370));
#184=ADVANCED_FACE('',(#371),#372,.T.);
#185=PRESENTATION_STYLE_ASSIGNMENT((#373));
#186=ADVANCED_FACE('',(#374),#375,.T.);
#187=PRESENTATION_STYLE_ASSIGNMENT((#376));
#188=ADVANCED_FACE('',(#377),#378,.T.);
#189=PRESENTATION_STYLE_ASSIGNMENT((#379));
#190=MANIFOLD_SOLID_BREP('1',#380);
#191=PRODUCT('1','','PART--DESC',(#381));
#192=PRODUCT_DEFINITION('','NONE',#382,#2);
#193=AXIS2_PLACEMENT_3D('',#383,#384,#385);
#196=LENGTH_MEASURE_WITH_UNIT(LENGTH_MEASURE(1.0),#386);
#199=DIMENSIONAL_EXPONENTS(1.0,0.0,0.0,0.0,0.0,0.0,0.0);
#201=DIMENSIONAL_EXPONENTS(0.0,0.0,0.0,0.0,0.0,0.0,0.0);
#207=SURFACE_STYLE_USAGE(.BOTH.,#387);
#208=FACE_OUTER_BOUND('',#388,.T.);
#209=CYLINDRICAL_SURFACE('',#389,0.75);
#210=SURFACE_STYLE_USAGE(.BOTH.,#390);
#211=FACE_OUTER_BOUND('',#391,.T.);
#212=CONICAL_SURFACE('',#392,2.0,0.785398163397448);
#213=SURFACE_STYLE_USAGE(.BOTH.,#393);
#214=FACE_OUTER_BOUND('',#394,.T.);
#215=CYLINDRICAL_SURFACE('',#395,0.4);
#216=SURFACE_STYLE_USAGE(.BOTH.,#396);
#217=FACE_OUTER_BOUND('',#397,.T.);
#218=CYLINDRICAL_SURFACE('',#398,1.5);
#219=SURFACE_STYLE_USAGE(.BOTH.,#399);
#220=FACE_OUTER_BOUND('',#400,.T.);
#221=CYLINDRICAL_SURFACE('',#401,2.0);
#222=SURFACE_STYLE_USAGE(.BOTH.,#402);
#223=FACE_OUTER_BOUND('',#403,.T.);
#224=CYLINDRICAL_SURFACE('',#404,2.0);
#225=SURFACE_STYLE_USAGE(.BOTH.,#405);
#226=FACE_OUTER_BOUND('',#406,.T.);
#227=FACE_BOUND('',#407,.T.);
#228=PLANE('',#408);
#229=SURFACE_STYLE_USAGE(.BOTH.,#409);
#230=FACE_OUTER_BOUND('',#410,.T.);
#231=PLANE('',#411);
#232=SURFACE_STYLE_USAGE(.BOTH.,#412);
#233=FACE_OUTER_BOUND('',#413,.T.);
#234=PLANE('',#414);
#235=SURFACE_STYLE_USAGE(.BOTH.,#415);
#236=FACE_OUTER_BOUND('',#416,.T.);
#237=PLANE('',#417);
#238=SURFACE_STYLE_USAGE(.BOTH.,#418);
#239=FACE_OUTER_BOUND('',#419,.T.);
#240=CYLINDRICAL_SURFACE('',#420,1.0);
#241=SURFACE_STYLE_USAGE(.BOTH.,#421);
#242=FACE_OUTER_BOUND('',#422,.T.);
#243=PLANE('',#423);
#244=SURFACE_STYLE_USAGE(.BOTH.,#424);
#245=FACE_OUTER_BOUND('',#425,.T.);
#246=CYLINDRICAL_SURFACE('',#426,1.0);
#247=SURFACE_STYLE_USAGE(.BOTH.,#427);
#248=FACE_OUTER_BOUND('',#428,.T.);
#249=PLANE('',#429);
#250=SURFACE_STYLE_USAGE(.BOTH.,#430);
#251=FACE_OUTER_BOUND('',#431,.T.);
#252=PLANE('',#432);
#253=SURFACE_STYLE_USAGE(.BOTH.,#433);
#254=FACE_OUTER_BOUND('',#434,.T.);
#255=PLANE('',#435);
#256=SURFACE_STYLE_USAGE(.BOTH.,#436);
#257=FACE_OUTER_BOUND('',#437,.T.);
#258=PLANE('',#438);
#259=SURFACE_STYLE_USAGE(.BOTH.,#439);
#260=FACE_OUTER_BOUND('',#440,.T.);
#261=CYLINDRICAL_SURFACE('',#441,1.5);
#262=SURFACE_STYLE_USAGE(.BOTH.,#442);
#263=FACE_OUTER_BOUND('',#443,.T.);
#264=FACE_BOUND('',#444,.T.);
#265=PLANE('',#445);
#266=SURFACE_STYLE_USAGE(.BOTH.,#446);
#267=FACE_OUTER_BOUND('',#447,.T.);
#268=CYLINDRICAL_SURFACE('',#448,4.0);
#269=SURFACE_STYLE_USAGE(.BOTH.,#449);
#270=FACE_OUTER_BOUND('',#450,.T.);
#271=CYLINDRICAL_SURFACE('',#451,4.0);
#272=SURFACE_STYLE_USAGE(.BOTH.,#452);
#273=FACE_OUTER_BOUND('',#453,.T.);
#274=CYLINDRICAL_SURFACE('',#454,4.0);
#275=SURFACE_STYLE_USAGE(.BOTH.,#455);
#276=FACE_OUTER_BOUND('',#456,.T.);
#277=CYLINDRICAL_SURFACE('',#457,4.0);
#278=SURFACE_STYLE_USAGE(.BOTH.,#458);
#279=FACE_OUTER_BOUND('',#459,.T.);
#280=FACE_BOUND('',#460,.T.);
#281=PLANE('',#461);
#282=SURFACE_STYLE_USAGE(.BOTH.,#462);
#283=FACE_OUTER_BOUND('',#463,.T.);
#284=FACE_BOUND('',#464,.T.);
#285=PLANE('',#465);
#286=SURFACE_STYLE_USAGE(.BOTH.,#466);
#287=FACE_OUTER_BOUND('',#467,.T.);
#288=PLANE('',#468);
#289=SURFACE_STYLE_USAGE(.BOTH.,#469);
#290=FACE_OUTER_BOUND('',#470,.T.);
#291=PLANE('',#471);
#292=SURFACE_STYLE_USAGE(.BOTH.,#472);
#293=FACE_OUTER_BOUND('',#473,.T.);
#294=PLANE('',#474);
#295=SURFACE_STYLE_USAGE(.BOTH.,#475);
#296=FACE_OUTER_BOUND('',#476,.T.);
#297=PLANE('',#477);
#298=SURFACE_STYLE_USAGE(.BOTH.,#478);
#299=FACE_OUTER_BOUND('',#479,.T.);
#300=PLANE('',#480);
#301=SURFACE_STYLE_USAGE(.BOTH.,#481);
#302=FACE_OUTER_BOUND('',#482,.T.);
#303=PLANE('',#483);
#304=SURFACE_STYLE_USAGE(.BOTH.,#484);
#305=FACE_OUTER_BOUND('',#485,.T.);
#306=PLANE('',#486);
#307=SURFACE_STYLE_USAGE(.BOTH.,#487);
#308=FACE_OUTER_BOUND('',#488,.T.);
#309=PLANE('',#489);
#310=SURFACE_STYLE_USAGE(.BOTH.,#490);
#311=FACE_OUTER_BOUND('',#491,.T.);
#312=PLANE('',#492);
#313=SURFACE_STYLE_USAGE(.BOTH.,#493);
#314=FACE_OUTER_BOUND('',#494,.T.);
#315=PLANE('',#495);
#316=SURFACE_STYLE_USAGE(.BOTH.,#496);
#317=FACE_OUTER_BOUND('',#497,.T.);
#318=PLANE('',#498);
#319=SURFACE_STYLE_USAGE(.BOTH.,#499);
#320=FACE_OUTER_BOUND('',#500,.T.);
#321=PLANE('',#501);
#322=SURFACE_STYLE_USAGE(.BOTH.,#502);
#323=FACE_OUTER_BOUND('',#503,.T.);
#324=PLANE('',#504);
#325=SURFACE_STYLE_USAGE(.BOTH.,#505);
#326=FACE_OUTER_BOUND('',#506,.T.);
#327=PLANE('',#507);
#328=SURFACE_STYLE_USAGE(.BOTH.,#508);
#329=FACE_OUTER_BOUND('',#509,.T.);
#330=FACE_BOUND('',#510,.T.);
#331=PLANE('',#511);
#332=SURFACE_STYLE_USAGE(.BOTH.,#512);
#333=FACE_OUTER_BOUND('',#513,.T.);
#334=CYLINDRICAL_SURFACE('',#514,0.4);
#335=SURFACE_STYLE_USAGE(.BOTH.,#515);
#336=FACE_OUTER_BOUND('',#516,.T.);
#337=PLANE('',#517);
#338=SURFACE_STYLE_USAGE(.BOTH.,#518);
#339=FACE_OUTER_BOUND('',#519,.T.);
#340=PLANE('',#520);
#341=SURFACE_STYLE_USAGE(.BOTH.,#521);
#342=FACE_OUTER_BOUND('',#522,.T.);
#343=CONICAL_SURFACE('',#523,2.0,0.785398163397448);
#344=SURFACE_STYLE_USAGE(.BOTH.,#524);
#345=FACE_OUTER_BOUND('',#525,.T.);
#346=FACE_BOUND('',#526,.T.);
#347=PLANE('',#527);
#348=SURFACE_STYLE_USAGE(.BOTH.,#528);
#349=FACE_OUTER_BOUND('',#529,.T.);
#350=PLANE('',#530);
#351=SURFACE_STYLE_USAGE(.BOTH.,#531);
#352=FACE_OUTER_BOUND('',#532,.T.);
#353=PLANE('',#533);
#354=SURFACE_STYLE_USAGE(.BOTH.,#534);
#355=FACE_OUTER_BOUND('',#535,.T.);
#356=PLANE('',#536);
#357=SURFACE_STYLE_USAGE(.BOTH.,#537);
#358=FACE_OUTER_BOUND('',#538,.T.);
#359=FACE_BOUND('',#539,.T.);
#360=PLANE('',#540);
#361=SURFACE_STYLE_USAGE(.BOTH.,#541);
#362=FACE_OUTER_BOUND('',#542,.T.);
#363=PLANE('',#543);
#364=SURFACE_STYLE_USAGE(.BOTH.,#544);
#365=FACE_OUTER_BOUND('',#545,.T.);
#366=CYLINDRICAL_SURFACE('',#546,0.75);
#367=SURFACE_STYLE_USAGE(.BOTH.,#547);
#368=FACE_OUTER_BOUND('',#548,.T.);
#369=CYLINDRICAL_SURFACE('',#549,4.0);
#370=SURFACE_STYLE_USAGE(.BOTH.,#550);
#371=FACE_OUTER_BOUND('',#551,.T.);
#372=CYLINDRICAL_SURFACE('',#552,4.0);
#373=SURFACE_STYLE_USAGE(.BOTH.,#553);
#374=FACE_OUTER_BOUND('',#554,.T.);
#375=CYLINDRICAL_SURFACE('',#555,4.0);
#376=SURFACE_STYLE_USAGE(.BOTH.,#556);
#377=FACE_OUTER_BOUND('',#557,.T.);
#378=CYLINDRICAL_SURFACE('',#558,4.0);
#379=SURFACE_STYLE_USAGE(.BOTH.,#559);
#380=CLOSED_SHELL('',(#80,#82,#84,#86,#88,#90,#92,#94,#96,#98,#100,#102,#104,#106,#108,#110,#112,#114,#116,#118,#120,#122,#124,#126,#128,#130,#132,#134,#136,#138,#140,#142,#144,#146,#148,#150,#152,#154,#156,#158,#160,#162,#164,#166,#168,#170,#172,#174,#176,#178,#180,#182,#184,#186,#188));
#381=PRODUCT_CONTEXT('',#66,'mechanical');
#382=PRODUCT_DEFINITION_FORMATION_WITH_SPECIFIED_SOURCE(' ','NONE',#191,.NOT_KNOWN.);
#383=CARTESIAN_POINT('',(0.0,0.0,0.0));
#384=DIRECTION('',(0.0,0.0,1.0));
#385=DIRECTION('',(1.0,0.0,0.0));
#386= (NAMED_UNIT(#199)LENGTH_UNIT()SI_UNIT(.MILLI.,.METRE.));
#387=SURFACE_SIDE_STYLE('',(#561));
#388=EDGE_LOOP('',(#562,#563,#564,#565));
#389=AXIS2_PLACEMENT_3D('',#566,#567,#568);
#390=SURFACE_SIDE_STYLE('',(#569));
#391=EDGE_LOOP('',(#570,#571,#572,#573));
#392=AXIS2_PLACEMENT_3D('',#574,#575,#576);
#393=SURFACE_SIDE_STYLE('',(#577));
#394=EDGE_LOOP('',(#578,#579,#580,#581));
#395=AXIS2_PLACEMENT_3D('',#582,#583,#584);
#396=SURFACE_SIDE_STYLE('',(#585));
#397=EDGE_LOOP('',(#586,#587,#588,#589));
#398=AXIS2_PLACEMENT_3D('',#590,#591,#592);
#399=SURFACE_SIDE_STYLE('',(#593));
#400=EDGE_LOOP('',(#594,#595,#596,#597));
#401=AXIS2_PLACEMENT_3D('',#598,#599,#600);
#402=SURFACE_SIDE_STYLE('',(#601));
#403=EDGE_LOOP('',(#602,#603,#604,#605));
#404=AXIS2_PLACEMENT_3D('',#606,#607,#608);
#405=SURFACE_SIDE_STYLE('',(#609));
#406=EDGE_LOOP('',(#610,#611,#612,#613,#614,#615,#616,#617,#618,#619,#620,#621,#622,#623));
#407=EDGE_LOOP('',(#624,#625));
#408=AXIS2_PLACEMENT_3D('',#626,#627,#628);
#409=SURFACE_SIDE_STYLE('',(#629));
#410=EDGE_LOOP('',(#630,#631,#632,#633,#634,#635));
#411=AXIS2_PLACEMENT_3D('',#636,#637,#638);
#412=SURFACE_SIDE_STYLE('',(#639));
#413=EDGE_LOOP('',(#640,#641,#642,#643));
#414=AXIS2_PLACEMENT_3D('',#644,#645,#646);
#415=SURFACE_SIDE_STYLE('',(#647));
#416=EDGE_LOOP('',(#648,#649,#650,#651));
#417=AXIS2_PLACEMENT_3D('',#652,#653,#654);
#418=SURFACE_SIDE_STYLE('',(#655));
#419=EDGE_LOOP('',(#656,#657,#658,#659));
#420=AXIS2_PLACEMENT_3D('',#660,#661,#662);
#421=SURFACE_SIDE_STYLE('',(#663));
#422=EDGE_LOOP('',(#664,#665,#666,#667));
#423=AXIS2_PLACEMENT_3D('',#668,#669,#670);
#424=SURFACE_SIDE_STYLE('',(#671));
#425=EDGE_LOOP('',(#672,#673,#674,#675));
#426=AXIS2_PLACEMENT_3D('',#676,#677,#678);
#427=SURFACE_SIDE_STYLE('',(#679));
#428=EDGE_LOOP('',(#680,#681,#682,#683));
#429=AXIS2_PLACEMENT_3D('',#684,#685,#686);
#430=SURFACE_SIDE_STYLE('',(#687));
#431=EDGE_LOOP('',(#688,#689,#690,#691));
#432=AXIS2_PLACEMENT_3D('',#692,#693,#694);
#433=SURFACE_SIDE_STYLE('',(#695));
#434=EDGE_LOOP('',(#696,#697,#698,#699));
#435=AXIS2_PLACEMENT_3D('',#700,#701,#702);
#436=SURFACE_SIDE_STYLE('',(#703));
#437=EDGE_LOOP('',(#704,#705,#706,#707,#708,#709,#710,#711));
#438=AXIS2_PLACEMENT_3D('',#712,#713,#714);
#439=SURFACE_SIDE_STYLE('',(#715));
#440=EDGE_LOOP('',(#716,#717,#718,#719));
#441=AXIS2_PLACEMENT_3D('',#720,#721,#722);
#442=SURFACE_SIDE_STYLE('',(#723));
#443=EDGE_LOOP('',(#724,#725));
#444=EDGE_LOOP('',(#726,#727));
#445=AXIS2_PLACEMENT_3D('',#728,#729,#730);
#446=SURFACE_SIDE_STYLE('',(#731));
#447=EDGE_LOOP('',(#732,#733,#734,#735));
#448=AXIS2_PLACEMENT_3D('',#736,#737,#738);
#449=SURFACE_SIDE_STYLE('',(#739));
#450=EDGE_LOOP('',(#740,#741,#742,#743));
#451=AXIS2_PLACEMENT_3D('',#744,#745,#746);
#452=SURFACE_SIDE_STYLE('',(#747));
#453=EDGE_LOOP('',(#748,#749,#750,#751));
#454=AXIS2_PLACEMENT_3D('',#752,#753,#754);
#455=SURFACE_SIDE_STYLE('',(#755));
#456=EDGE_LOOP('',(#756,#757,#758,#759));
#457=AXIS2_PLACEMENT_3D('',#760,#761,#762);
#458=SURFACE_SIDE_STYLE('',(#763));
#459=EDGE_LOOP('',(#764,#765));
#460=EDGE_LOOP('',(#766,#767));
#461=AXIS2_PLACEMENT_3D('',#768,#769,#770);
#462=SURFACE_SIDE_STYLE('',(#771));
#463=EDGE_LOOP('',(#772,#773,#774,#775,#776,#777,#778,#779,#780,#781,#782,#783,#784,#785));
#464=EDGE_LOOP('',(#786,#787));
#465=AXIS2_PLACEMENT_3D('',#788,#789,#790);
#466=SURFACE_SIDE_STYLE('',(#791));
#467=EDGE_LOOP('',(#792,#793,#794,#795));
#468=AXIS2_PLACEMENT_3D('',#796,#797,#798);
#469=SURFACE_SIDE_STYLE('',(#799));
#470=EDGE_LOOP('',(#800,#801,#802,#803));
#471=AXIS2_PLACEMENT_3D('',#804,#805,#806);
#472=SURFACE_SIDE_STYLE('',(#807));
#473=EDGE_LOOP('',(#808,#809,#810,#811));
#474=AXIS2_PLACEMENT_3D('',#812,#813,#814);
#475=SURFACE_SIDE_STYLE('',(#815));
#476=EDGE_LOOP('',(#816,#817,#818,#819));
#477=AXIS2_PLACEMENT_3D('',#820,#821,#822);
#478=SURFACE_SIDE_STYLE('',(#823));
#479=EDGE_LOOP('',(#824,#825,#826,#827));
#480=AXIS2_PLACEMENT_3D('',#828,#829,#830);
#481=SURFACE_SIDE_STYLE('',(#831));
#482=EDGE_LOOP('',(#832,#833,#834,#835));
#483=AXIS2_PLACEMENT_3D('',#836,#837,#838);
#484=SURFACE_SIDE_STYLE('',(#839));
#485=EDGE_LOOP('',(#840,#841,#842,#843));
#486=AXIS2_PLACEMENT_3D('',#844,#845,#846);
#487=SURFACE_SIDE_STYLE('',(#847));
#488=EDGE_LOOP('',(#848,#849,#850,#851));
#489=AXIS2_PLACEMENT_3D('',#852,#853,#854);
#490=SURFACE_SIDE_STYLE('',(#855));
#491=EDGE_LOOP('',(#856,#857,#858,#859));
#492=AXIS2_PLACEMENT_3D('',#860,#861,#862);
#493=SURFACE_SIDE_STYLE('',(#863));
#494=EDGE_LOOP('',(#864,#865,#866,#867));
#495=AXIS2_PLACEMENT_3D('',#868,#869,#870);
#496=SURFACE_SIDE_STYLE('',(#871));
#497=EDGE_LOOP('',(#872,#873,#874,#875));
#498=AXIS2_PLACEMENT_3D('',#876,#877,#878);
#499=SURFACE_SIDE_STYLE('',(#879));
#500=EDGE_LOOP('',(#880,#881,#882,#883));
#501=AXIS2_PLACEMENT_3D('',#884,#885,#886);
#502=SURFACE_SIDE_STYLE('',(#887));
#503=EDGE_LOOP('',(#888,#889,#890,#891));
#504=AXIS2_PLACEMENT_3D('',#892,#893,#894);
#505=SURFACE_SIDE_STYLE('',(#895));
#506=EDGE_LOOP('',(#896,#897,#898,#899));
#507=AXIS2_PLACEMENT_3D('',#900,#901,#902);
#508=SURFACE_SIDE_STYLE('',(#903));
#509=EDGE_LOOP('',(#904,#905));
#510=EDGE_LOOP('',(#906,#907));
#511=AXIS2_PLACEMENT_3D('',#908,#909,#910);
#512=SURFACE_SIDE_STYLE('',(#911));
#513=EDGE_LOOP('',(#912,#913,#914,#915));
#514=AXIS2_PLACEMENT_3D('',#916,#917,#918);
#515=SURFACE_SIDE_STYLE('',(#919));
#516=EDGE_LOOP('',(#920,#921));
#517=AXIS2_PLACEMENT_3D('',#922,#923,#924);
#518=SURFACE_SIDE_STYLE('',(#925));
#519=EDGE_LOOP('',(#926,#927));
#520=AXIS2_PLACEMENT_3D('',#928,#929,#930);
#521=SURFACE_SIDE_STYLE('',(#931));
#522=EDGE_LOOP('',(#932,#933,#934,#935));
#523=AXIS2_PLACEMENT_3D('',#936,#937,#938);
#524=SURFACE_SIDE_STYLE('',(#939));
#525=EDGE_LOOP('',(#940,#941,#942,#943,#944,#945,#946,#947));
#526=EDGE_LOOP('',(#948,#949,#950,#951,#952,#953,#954,#955,#956,#957,#958,#959,#960,#961));
#527=AXIS2_PLACEMENT_3D('',#962,#963,#964);
#528=SURFACE_SIDE_STYLE('',(#965));
#529=EDGE_LOOP('',(#966,#967,#968,#969));
#530=AXIS2_PLACEMENT_3D('',#970,#971,#972);
#531=SURFACE_SIDE_STYLE('',(#973));
#532=EDGE_LOOP('',(#974,#975,#976,#977));
#533=AXIS2_PLACEMENT_3D('',#978,#979,#980);
#534=SURFACE_SIDE_STYLE('',(#981));
#535=EDGE_LOOP('',(#982,#983,#984,#985));
#536=AXIS2_PLACEMENT_3D('',#986,#987,#988);
#537=SURFACE_SIDE_STYLE('',(#989));
#538=EDGE_LOOP('',(#990,#991,#992,#993,#994,#995,#996,#997));
#539=EDGE_LOOP('',(#998,#999,#1000,#1001,#1002,#1003,#1004,#1005));
#540=AXIS2_PLACEMENT_3D('',#1006,#1007,#1008);
#541=SURFACE_SIDE_STYLE('',(#1009));
#542=EDGE_LOOP('',(#1010,#1011,#1012,#1013));
#543=AXIS2_PLACEMENT_3D('',#1014,#1015,#1016);
#544=SURFACE_SIDE_STYLE('',(#1017));
#545=EDGE_LOOP('',(#1018,#1019,#1020,#1021));
#546=AXIS2_PLACEMENT_3D('',#1022,#1023,#1024);
#547=SURFACE_SIDE_STYLE('',(#1025));
#548=EDGE_LOOP('',(#1026,#1027,#1028,#1029));
#549=AXIS2_PLACEMENT_3D('',#1030,#1031,#1032);
#550=SURFACE_SIDE_STYLE('',(#1033));
#551=EDGE_LOOP('',(#1034,#1035,#1036,#1037));
#552=AXIS2_PLACEMENT_3D('',#1038,#1039,#1040);
#553=SURFACE_SIDE_STYLE('',(#1041));
#554=EDGE_LOOP('',(#1042,#1043,#1044,#1045));
#555=AXIS2_PLACEMENT_3D('',#1046,#1047,#1048);
#556=SURFACE_SIDE_STYLE('',(#1049));
#557=EDGE_LOOP('',(#1050,#1051,#1052,#1053));
#558=AXIS2_PLACEMENT_3D('',#1054,#1055,#1056);
#559=SURFACE_SIDE_STYLE('',(#1057));
#561=SURFACE_STYLE_FILL_AREA(#1058);
#562=ORIENTED_EDGE('',*,*,#1059,.F.);
#563=ORIENTED_EDGE('',*,*,#1060,.F.);
#564=ORIENTED_EDGE('',*,*,#1061,.F.);
#565=ORIENTED_EDGE('',*,*,#1062,.T.);
#566=CARTESIAN_POINT('',(12.5,9.24608333356251E-16,-15.1));
#567=DIRECTION('',(0.0,-1.0,-6.12323399573676E-17));
#568=DIRECTION('',(1.0,0.0,0.0));
#569=SURFACE_STYLE_FILL_AREA(#1063);
#570=ORIENTED_EDGE('',*,*,#1064,.F.);
#571=ORIENTED_EDGE('',*,*,#1065,.F.);
#572=ORIENTED_EDGE('',*,*,#1066,.F.);
#573=ORIENTED_EDGE('',*,*,#1067,.T.);
#574=CARTESIAN_POINT('',(12.5,4.0,-15.1));
#575=DIRECTION('',(-0.0,-1.0,-6.12323399573676E-17));
#576=DIRECTION('',(-1.0,0.0,0.0));
#577=SURFACE_STYLE_FILL_AREA(#1068);
#578=ORIENTED_EDGE('',*,*,#1069,.F.);
#579=ORIENTED_EDGE('',*,*,#1070,.F.);
#580=ORIENTED_EDGE('',*,*,#1071,.F.);
#581=ORIENTED_EDGE('',*,*,#1072,.T.);
#582=CARTESIAN_POINT('',(12.5,-2.0,-15.1));
#583=DIRECTION('',(0.0,-1.0,-6.12323399573676E-17));
#584=DIRECTION('',(1.0,0.0,0.0));
#585=SURFACE_STYLE_FILL_AREA(#1073);
#586=ORIENTED_EDGE('',*,*,#1074,.F.);
#587=ORIENTED_EDGE('',*,*,#1075,.T.);
#588=ORIENTED_EDGE('',*,*,#1076,.F.);
#589=ORIENTED_EDGE('',*,*,#1077,.F.);
#590=CARTESIAN_POINT('',(12.5,9.24608333356251E-16,-15.1));
#591=DIRECTION('',(0.0,1.0,6.12323399573676E-17));
#592=DIRECTION('',(-1.0,0.0,0.0));
#593=SURFACE_STYLE_FILL_AREA(#1078);
#594=ORIENTED_EDGE('',*,*,#1079,.F.);
#595=ORIENTED_EDGE('',*,*,#1080,.F.);
#596=ORIENTED_EDGE('',*,*,#1081,.F.);
#597=ORIENTED_EDGE('',*,*,#1082,.T.);
#598=CARTESIAN_POINT('',(12.5,-0.199999999999999,-15.1));
#599=DIRECTION('',(0.0,-1.0,-6.12323399573676E-17));
#600=DIRECTION('',(1.0,0.0,0.0));
#601=SURFACE_STYLE_FILL_AREA(#1083);
#602=ORIENTED_EDGE('',*,*,#1079,.T.);
#603=ORIENTED_EDGE('',*,*,#1084,.T.);
#604=ORIENTED_EDGE('',*,*,#1081,.T.);
#605=ORIENTED_EDGE('',*,*,#1085,.F.);
#606=CARTESIAN_POINT('',(12.5,-0.199999999999999,-15.1));
#607=DIRECTION('',(0.0,-1.0,-6.12323399573676E-17));
#608=DIRECTION('',(1.0,0.0,0.0));
#609=SURFACE_STYLE_FILL_AREA(#1086);
#610=ORIENTED_EDGE('',*,*,#1087,.F.);
#611=ORIENTED_EDGE('',*,*,#1088,.T.);
#612=ORIENTED_EDGE('',*,*,#1089,.F.);
#613=ORIENTED_EDGE('',*,*,#1090,.T.);
#614=ORIENTED_EDGE('',*,*,#1091,.T.);
#615=ORIENTED_EDGE('',*,*,#1092,.T.);
#616=ORIENTED_EDGE('',*,*,#1093,.T.);
#617=ORIENTED_EDGE('',*,*,#1094,.T.);
#618=ORIENTED_EDGE('',*,*,#1095,.F.);
#619=ORIENTED_EDGE('',*,*,#1096,.T.);
#620=ORIENTED_EDGE('',*,*,#1097,.F.);
#621=ORIENTED_EDGE('',*,*,#1098,.T.);
#622=ORIENTED_EDGE('',*,*,#1099,.F.);
#623=ORIENTED_EDGE('',*,*,#1100,.T.);
#624=ORIENTED_EDGE('',*,*,#1084,.F.);
#625=ORIENTED_EDGE('',*,*,#1082,.F.);
#626=CARTESIAN_POINT('',(2.5,-0.199999999999999,-22.5));
#627=DIRECTION('',(-0.0,1.0,6.12323399573676E-17));
#628=DIRECTION('',(1.0,0.0,0.0));
#629=SURFACE_STYLE_FILL_AREA(#1101);
#630=ORIENTED_EDGE('',*,*,#1102,.T.);
#631=ORIENTED_EDGE('',*,*,#1103,.F.);
#632=ORIENTED_EDGE('',*,*,#1104,.F.);
#633=ORIENTED_EDGE('',*,*,#1105,.F.);
#634=ORIENTED_EDGE('',*,*,#1106,.F.);
#635=ORIENTED_EDGE('',*,*,#1107,.F.);
#636=CARTESIAN_POINT('',(2.5,-0.0799999999999986,-22.5));
#637=DIRECTION('',(-0.0,1.0,6.12323399573676E-17));
#638=DIRECTION('',(1.0,0.0,0.0));
#639=SURFACE_STYLE_FILL_AREA(#1108);
#640=ORIENTED_EDGE('',*,*,#1094,.F.);
#641=ORIENTED_EDGE('',*,*,#1109,.F.);
#642=ORIENTED_EDGE('',*,*,#1103,.T.);
#643=ORIENTED_EDGE('',*,*,#1110,.T.);
#644=CARTESIAN_POINT('',(27.8,-0.079999999999999,-15.7));
#645=DIRECTION('',(-2.89120579329468E-16,-6.12323399573676E-17,1.0));
#646=DIRECTION('',(-1.0,1.77035296021731E-32,-2.89120579329468E-16));
#647=SURFACE_STYLE_FILL_AREA(#1111);
#648=ORIENTED_EDGE('',*,*,#1090,.F.);
#649=ORIENTED_EDGE('',*,*,#1112,.F.);
#650=ORIENTED_EDGE('',*,*,#1107,.T.);
#651=ORIENTED_EDGE('',*,*,#1113,.T.);
#652=CARTESIAN_POINT('',(24.8,-0.0799999999999987,-20.7));
#653=DIRECTION('',(5.78241158658936E-16,6.12323399573676E-17,-1.0));
#654=DIRECTION('',(1.0,-3.54070592043461E-32,5.78241158658936E-16));
#655=SURFACE_STYLE_FILL_AREA(#1114);
#656=ORIENTED_EDGE('',*,*,#1091,.F.);
#657=ORIENTED_EDGE('',*,*,#1113,.F.);
#658=ORIENTED_EDGE('',*,*,#1106,.T.);
#659=ORIENTED_EDGE('',*,*,#1115,.T.);
#660=CARTESIAN_POINT('',(27.8,-0.0799999999999988,-19.7));
#661=DIRECTION('',(0.0,1.0,6.12323399573676E-17));
#662=DIRECTION('',(-1.0,0.0,0.0));
#663=SURFACE_STYLE_FILL_AREA(#1116);
#664=ORIENTED_EDGE('',*,*,#1092,.F.);
#665=ORIENTED_EDGE('',*,*,#1115,.F.);
#666=ORIENTED_EDGE('',*,*,#1105,.T.);
#667=ORIENTED_EDGE('',*,*,#1117,.T.);
#668=CARTESIAN_POINT('',(28.8,-0.0799999999999988,-19.7));
#669=DIRECTION('',(1.0,0.0,0.0));
#670=DIRECTION('',(0.0,6.12323399573676E-17,-1.0));
#671=SURFACE_STYLE_FILL_AREA(#1118);
#672=ORIENTED_EDGE('',*,*,#1093,.F.);
#673=ORIENTED_EDGE('',*,*,#1117,.F.);
#674=ORIENTED_EDGE('',*,*,#1104,.T.);
#675=ORIENTED_EDGE('',*,*,#1109,.T.);
#676=CARTESIAN_POINT('',(27.8,-0.079999999999999,-16.7));
#677=DIRECTION('',(0.0,1.0,6.12323399573676E-17));
#678=DIRECTION('',(-1.0,0.0,0.0));
#679=SURFACE_STYLE_FILL_AREA(#1119);
#680=ORIENTED_EDGE('',*,*,#1120,.F.);
#681=ORIENTED_EDGE('',*,*,#1121,.T.);
#682=ORIENTED_EDGE('',*,*,#1097,.T.);
#683=ORIENTED_EDGE('',*,*,#1122,.T.);
#684=CARTESIAN_POINT('',(22.5,1.22464679914735E-17,-0.199999999999999));
#685=DIRECTION('',(0.0,6.12323399573676E-17,-1.0));
#686=DIRECTION('',(1.0,0.0,0.0));
#687=SURFACE_STYLE_FILL_AREA(#1123);
#688=ORIENTED_EDGE('',*,*,#1124,.T.);
#689=ORIENTED_EDGE('',*,*,#1125,.F.);
#690=ORIENTED_EDGE('',*,*,#1126,.T.);
#691=ORIENTED_EDGE('',*,*,#1099,.T.);
#692=CARTESIAN_POINT('',(0.2,1.53080849893419E-16,-2.5));
#693=DIRECTION('',(1.0,0.0,0.0));
#694=DIRECTION('',(0.0,6.12323399573676E-17,-1.0));
#695=SURFACE_STYLE_FILL_AREA(#1127);
#696=ORIENTED_EDGE('',*,*,#1128,.T.);
#697=ORIENTED_EDGE('',*,*,#1129,.F.);
#698=ORIENTED_EDGE('',*,*,#1130,.T.);
#699=ORIENTED_EDGE('',*,*,#1087,.T.);
#700=CARTESIAN_POINT('',(2.5,1.51856203094272E-15,-24.8));
#701=DIRECTION('',(0.0,-6.12323399573676E-17,1.0));
#702=DIRECTION('',(0.0,-1.0,-6.12323399573676E-17));
#703=SURFACE_STYLE_FILL_AREA(#1131);
#704=ORIENTED_EDGE('',*,*,#1132,.T.);
#705=ORIENTED_EDGE('',*,*,#1133,.F.);
#706=ORIENTED_EDGE('',*,*,#1134,.T.);
#707=ORIENTED_EDGE('',*,*,#1095,.T.);
#708=ORIENTED_EDGE('',*,*,#1110,.F.);
#709=ORIENTED_EDGE('',*,*,#1102,.F.);
#710=ORIENTED_EDGE('',*,*,#1112,.T.);
#711=ORIENTED_EDGE('',*,*,#1089,.T.);
#712=CARTESIAN_POINT('',(24.8,1.37772764904077E-15,-22.5));
#713=DIRECTION('',(-1.0,0.0,0.0));
#714=DIRECTION('',(0.0,1.0,6.12323399573676E-17));
#715=SURFACE_STYLE_FILL_AREA(#1135);
#716=ORIENTED_EDGE('',*,*,#1074,.T.);
#717=ORIENTED_EDGE('',*,*,#1136,.F.);
#718=ORIENTED_EDGE('',*,*,#1076,.T.);
#719=ORIENTED_EDGE('',*,*,#1137,.T.);
#720=CARTESIAN_POINT('',(12.5,9.24608333356251E-16,-15.1));
#721=DIRECTION('',(0.0,1.0,6.12323399573676E-17));
#722=DIRECTION('',(-1.0,0.0,0.0));
#723=SURFACE_STYLE_FILL_AREA(#1138);
#724=ORIENTED_EDGE('',*,*,#1085,.T.);
#725=ORIENTED_EDGE('',*,*,#1080,.T.);
#726=ORIENTED_EDGE('',*,*,#1075,.F.);
#727=ORIENTED_EDGE('',*,*,#1137,.F.);
#728=CARTESIAN_POINT('',(12.5,-0.00999999999999924,-12.5));
#729=DIRECTION('',(-0.0,1.0,6.12323399573676E-17));
#730=DIRECTION('',(1.0,0.0,0.0));
#731=SURFACE_STYLE_FILL_AREA(#1139);
#732=ORIENTED_EDGE('',*,*,#1140,.F.);
#733=ORIENTED_EDGE('',*,*,#1124,.F.);
#734=ORIENTED_EDGE('',*,*,#1098,.F.);
#735=ORIENTED_EDGE('',*,*,#1121,.F.);
#736=CARTESIAN_POINT('',(4.2,2.57175827820944E-16,-4.2));
#737=DIRECTION('',(0.0,1.0,6.12323399573676E-17));
#738=DIRECTION('',(-1.0,0.0,0.0));
#739=SURFACE_STYLE_FILL_AREA(#1141);
#740=ORIENTED_EDGE('',*,*,#1142,.F.);
#741=ORIENTED_EDGE('',*,*,#1128,.F.);
#742=ORIENTED_EDGE('',*,*,#1100,.F.);
#743=ORIENTED_EDGE('',*,*,#1126,.F.);
#744=CARTESIAN_POINT('',(4.2,1.27363267111325E-15,-20.8));
#745=DIRECTION('',(0.0,1.0,6.12323399573676E-17));
#746=DIRECTION('',(-1.0,0.0,0.0));
#747=SURFACE_STYLE_FILL_AREA(#1143);
#748=ORIENTED_EDGE('',*,*,#1144,.F.);
#749=ORIENTED_EDGE('',*,*,#1132,.F.);
#750=ORIENTED_EDGE('',*,*,#1088,.F.);
#751=ORIENTED_EDGE('',*,*,#1130,.F.);
#752=CARTESIAN_POINT('',(20.8,1.27363267111325E-15,-20.8));
#753=DIRECTION('',(0.0,1.0,6.12323399573676E-17));
#754=DIRECTION('',(-1.0,0.0,0.0));
#755=SURFACE_STYLE_FILL_AREA(#1145);
#756=ORIENTED_EDGE('',*,*,#1146,.F.);
#757=ORIENTED_EDGE('',*,*,#1122,.F.);
#758=ORIENTED_EDGE('',*,*,#1096,.F.);
#759=ORIENTED_EDGE('',*,*,#1134,.F.);
#760=CARTESIAN_POINT('',(20.8,2.57175827820944E-16,-4.2));
#761=DIRECTION('',(0.0,1.0,6.12323399573676E-17));
#762=DIRECTION('',(-1.0,0.0,0.0));
#763=SURFACE_STYLE_FILL_AREA(#1147);
#764=ORIENTED_EDGE('',*,*,#1077,.T.);
#765=ORIENTED_EDGE('',*,*,#1136,.T.);
#766=ORIENTED_EDGE('',*,*,#1148,.F.);
#767=ORIENTED_EDGE('',*,*,#1062,.F.);
#768=CARTESIAN_POINT('',(12.5,7.65404249467096E-16,-12.5));
#769=DIRECTION('',(0.0,-1.0,-6.12323399573676E-17));
#770=DIRECTION('',(0.0,-6.12323399573676E-17,1.0));
#771=SURFACE_STYLE_FILL_AREA(#1149);
#772=ORIENTED_EDGE('',*,*,#1150,.F.);
#773=ORIENTED_EDGE('',*,*,#1151,.T.);
#774=ORIENTED_EDGE('',*,*,#1152,.T.);
#775=ORIENTED_EDGE('',*,*,#1153,.T.);
#776=ORIENTED_EDGE('',*,*,#1154,.T.);
#777=ORIENTED_EDGE('',*,*,#1155,.T.);
#778=ORIENTED_EDGE('',*,*,#1156,.F.);
#779=ORIENTED_EDGE('',*,*,#1157,.F.);
#780=ORIENTED_EDGE('',*,*,#1158,.F.);
#781=ORIENTED_EDGE('',*,*,#1159,.T.);
#782=ORIENTED_EDGE('',*,*,#1160,.T.);
#783=ORIENTED_EDGE('',*,*,#1161,.T.);
#784=ORIENTED_EDGE('',*,*,#1162,.F.);
#785=ORIENTED_EDGE('',*,*,#1163,.F.);
#786=ORIENTED_EDGE('',*,*,#1067,.F.);
#787=ORIENTED_EDGE('',*,*,#1164,.F.);
#788=CARTESIAN_POINT('',(12.5,4.01,-12.5));
#789=DIRECTION('',(-0.0,1.0,6.12323399573676E-17));
#790=DIRECTION('',(1.0,0.0,0.0));
#791=SURFACE_STYLE_FILL_AREA(#1165);
#792=ORIENTED_EDGE('',*,*,#1166,.F.);
#793=ORIENTED_EDGE('',*,*,#1167,.T.);
#794=ORIENTED_EDGE('',*,*,#1155,.F.);
#795=ORIENTED_EDGE('',*,*,#1168,.F.);
#796=CARTESIAN_POINT('',(22.5,4.0,-20.5));
#797=DIRECTION('',(-1.0,1.18023530681154E-32,-1.92747052886312E-16));
#798=DIRECTION('',(0.0,1.0,6.12323399573676E-17));
#799=SURFACE_STYLE_FILL_AREA(#1169);
#800=ORIENTED_EDGE('',*,*,#1170,.F.);
#801=ORIENTED_EDGE('',*,*,#1171,.T.);
#802=ORIENTED_EDGE('',*,*,#1161,.F.);
#803=ORIENTED_EDGE('',*,*,#1172,.F.);
#804=CARTESIAN_POINT('',(2.5,4.0,-22.5));
#805=DIRECTION('',(0.0,-6.12323399573676E-17,1.0));
#806=DIRECTION('',(0.0,-1.0,-6.12323399573676E-17));
#807=SURFACE_STYLE_FILL_AREA(#1173);
#808=ORIENTED_EDGE('',*,*,#1174,.F.);
#809=ORIENTED_EDGE('',*,*,#1175,.F.);
#810=ORIENTED_EDGE('',*,*,#1176,.T.);
#811=ORIENTED_EDGE('',*,*,#1152,.F.);
#812=CARTESIAN_POINT('',(2.5,4.0,-4.5));
#813=DIRECTION('',(1.0,-1.0327058934601E-32,1.68653671275523E-16));
#814=DIRECTION('',(-1.68653671275523E-16,-6.12323399573676E-17,1.0));
#815=SURFACE_STYLE_FILL_AREA(#1177);
#816=ORIENTED_EDGE('',*,*,#1176,.F.);
#817=ORIENTED_EDGE('',*,*,#1178,.F.);
#818=ORIENTED_EDGE('',*,*,#1179,.T.);
#819=ORIENTED_EDGE('',*,*,#1153,.F.);
#820=CARTESIAN_POINT('',(4.5,4.0,-2.5));
#821=DIRECTION('',(0.707106781186548,4.32978028117746E-17,-0.707106781186547));
#822=DIRECTION('',(0.0,-1.0,-6.12323399573676E-17));
#823=SURFACE_STYLE_FILL_AREA(#1180);
#824=ORIENTED_EDGE('',*,*,#1179,.F.);
#825=ORIENTED_EDGE('',*,*,#1181,.F.);
#826=ORIENTED_EDGE('',*,*,#1168,.T.);
#827=ORIENTED_EDGE('',*,*,#1154,.F.);
#828=CARTESIAN_POINT('',(22.5,4.0,-2.5));
#829=DIRECTION('',(1.92747052886312E-16,6.12323399573676E-17,-1.0));
#830=DIRECTION('',(1.0,-1.18023530681154E-32,1.92747052886312E-16));
#831=SURFACE_STYLE_FILL_AREA(#1182);
#832=ORIENTED_EDGE('',*,*,#1183,.F.);
#833=ORIENTED_EDGE('',*,*,#1184,.F.);
#834=ORIENTED_EDGE('',*,*,#1185,.T.);
#835=ORIENTED_EDGE('',*,*,#1159,.F.);
#836=CARTESIAN_POINT('',(22.5,4.0,-20.5));
#837=DIRECTION('',(-1.0,1.18023530681154E-32,-1.92747052886312E-16));
#838=DIRECTION('',(0.0,1.0,6.12323399573676E-17));
#839=SURFACE_STYLE_FILL_AREA(#1186);
#840=ORIENTED_EDGE('',*,*,#1185,.F.);
#841=ORIENTED_EDGE('',*,*,#1187,.F.);
#842=ORIENTED_EDGE('',*,*,#1172,.T.);
#843=ORIENTED_EDGE('',*,*,#1160,.F.);
#844=CARTESIAN_POINT('',(20.5,4.0,-22.5));
#845=DIRECTION('',(-0.707106781186548,-4.32978028117747E-17,0.707106781186548));
#846=DIRECTION('',(-0.707106781186548,4.32978028117747E-17,-0.707106781186548));
#847=SURFACE_STYLE_FILL_AREA(#1188);
#848=ORIENTED_EDGE('',*,*,#1189,.F.);
#849=ORIENTED_EDGE('',*,*,#1190,.F.);
#850=ORIENTED_EDGE('',*,*,#1174,.T.);
#851=ORIENTED_EDGE('',*,*,#1151,.F.);
#852=CARTESIAN_POINT('',(2.5,4.0,-22.5));
#853=DIRECTION('',(0.0,-6.12323399573676E-17,1.0));
#854=DIRECTION('',(0.0,-1.0,-6.12323399573676E-17));
#855=SURFACE_STYLE_FILL_AREA(#1191);
#856=ORIENTED_EDGE('',*,*,#1192,.F.);
#857=ORIENTED_EDGE('',*,*,#1189,.T.);
#858=ORIENTED_EDGE('',*,*,#1150,.T.);
#859=ORIENTED_EDGE('',*,*,#1193,.T.);
#860=CARTESIAN_POINT('',(12.0,3.01,-22.5));
#861=DIRECTION('',(-1.0,0.0,0.0));
#862=DIRECTION('',(0.0,1.0,6.12323399573676E-17));
#863=SURFACE_STYLE_FILL_AREA(#1194);
#864=ORIENTED_EDGE('',*,*,#1195,.F.);
#865=ORIENTED_EDGE('',*,*,#1193,.F.);
#866=ORIENTED_EDGE('',*,*,#1163,.T.);
#867=ORIENTED_EDGE('',*,*,#1196,.T.);
#868=CARTESIAN_POINT('',(12.0,3.01,-19.5));
#869=DIRECTION('',(0.0,-6.12323399573676E-17,1.0));
#870=DIRECTION('',(0.0,-1.0,-6.12323399573676E-17));
#871=SURFACE_STYLE_FILL_AREA(#1197);
#872=ORIENTED_EDGE('',*,*,#1198,.F.);
#873=ORIENTED_EDGE('',*,*,#1196,.F.);
#874=ORIENTED_EDGE('',*,*,#1162,.T.);
#875=ORIENTED_EDGE('',*,*,#1171,.F.);
#876=CARTESIAN_POINT('',(12.5,3.01,-19.5));
#877=DIRECTION('',(1.0,-7.08141184086922E-32,1.15648231731787E-15));
#878=DIRECTION('',(-1.15648231731787E-15,-6.12323399573676E-17,1.0));
#879=SURFACE_STYLE_FILL_AREA(#1199);
#880=ORIENTED_EDGE('',*,*,#1200,.F.);
#881=ORIENTED_EDGE('',*,*,#1201,.F.);
#882=ORIENTED_EDGE('',*,*,#1157,.T.);
#883=ORIENTED_EDGE('',*,*,#1202,.T.);
#884=CARTESIAN_POINT('',(20.0,3.01,-12.0));
#885=DIRECTION('',(-1.0,0.0,0.0));
#886=DIRECTION('',(0.0,1.0,6.12323399573676E-17));
#887=SURFACE_STYLE_FILL_AREA(#1203);
#888=ORIENTED_EDGE('',*,*,#1204,.F.);
#889=ORIENTED_EDGE('',*,*,#1202,.F.);
#890=ORIENTED_EDGE('',*,*,#1156,.T.);
#891=ORIENTED_EDGE('',*,*,#1167,.F.);
#892=CARTESIAN_POINT('',(20.0,3.01,-11.5));
#893=DIRECTION('',(-2.08166817117217E-15,-6.12323399573676E-17,1.0));
#894=DIRECTION('',(-1.0,1.27465413135646E-31,-2.08166817117217E-15));
#895=SURFACE_STYLE_FILL_AREA(#1205);
#896=ORIENTED_EDGE('',*,*,#1206,.F.);
#897=ORIENTED_EDGE('',*,*,#1183,.T.);
#898=ORIENTED_EDGE('',*,*,#1158,.T.);
#899=ORIENTED_EDGE('',*,*,#1201,.T.);
#900=CARTESIAN_POINT('',(22.5,3.01,-12.0));
#901=DIRECTION('',(2.08166817117217E-15,6.12323399573676E-17,-1.0));
#902=DIRECTION('',(1.0,-1.27465413135646E-31,2.08166817117217E-15));
#903=SURFACE_STYLE_FILL_AREA(#1207);
#904=ORIENTED_EDGE('',*,*,#1208,.T.);
#905=ORIENTED_EDGE('',*,*,#1060,.T.);
#906=ORIENTED_EDGE('',*,*,#1072,.F.);
#907=ORIENTED_EDGE('',*,*,#1209,.F.);
#908=CARTESIAN_POINT('',(12.5,4.0,-15.1));
#909=DIRECTION('',(0.0,-1.0,-6.12323399573676E-17));
#910=DIRECTION('',(0.0,-6.12323399573676E-17,1.0));
#911=SURFACE_STYLE_FILL_AREA(#1210);
#912=ORIENTED_EDGE('',*,*,#1069,.T.);
#913=ORIENTED_EDGE('',*,*,#1209,.T.);
#914=ORIENTED_EDGE('',*,*,#1071,.T.);
#915=ORIENTED_EDGE('',*,*,#1211,.F.);
#916=CARTESIAN_POINT('',(12.5,-2.0,-15.1));
#917=DIRECTION('',(0.0,-1.0,-6.12323399573676E-17));
#918=DIRECTION('',(1.0,0.0,0.0));
#919=SURFACE_STYLE_FILL_AREA(#1212);
#920=ORIENTED_EDGE('',*,*,#1070,.T.);
#921=ORIENTED_EDGE('',*,*,#1211,.T.);
#922=CARTESIAN_POINT('',(12.5,-2.0,-15.1));
#923=DIRECTION('',(0.0,-1.0,-6.12323399573676E-17));
#924=DIRECTION('',(0.0,-6.12323399573676E-17,1.0));
#925=SURFACE_STYLE_FILL_AREA(#1213);
#926=ORIENTED_EDGE('',*,*,#1214,.T.);
#927=ORIENTED_EDGE('',*,*,#1065,.T.);
#928=CARTESIAN_POINT('',(12.5,4.7,-15.1));
#929=DIRECTION('',(0.0,-1.0,-6.12323399573676E-17));
#930=DIRECTION('',(0.0,-6.12323399573676E-17,1.0));
#931=SURFACE_STYLE_FILL_AREA(#1215);
#932=ORIENTED_EDGE('',*,*,#1064,.T.);
#933=ORIENTED_EDGE('',*,*,#1164,.T.);
#934=ORIENTED_EDGE('',*,*,#1066,.T.);
#935=ORIENTED_EDGE('',*,*,#1214,.F.);
#936=CARTESIAN_POINT('',(12.5,4.0,-15.1));
#937=DIRECTION('',(-0.0,-1.0,-6.12323399573676E-17));
#938=DIRECTION('',(-1.0,0.0,0.0));
#939=SURFACE_STYLE_FILL_AREA(#1216);
#940=ORIENTED_EDGE('',*,*,#1217,.F.);
#941=ORIENTED_EDGE('',*,*,#1218,.T.);
#942=ORIENTED_EDGE('',*,*,#1219,.F.);
#943=ORIENTED_EDGE('',*,*,#1220,.T.);
#944=ORIENTED_EDGE('',*,*,#1221,.F.);
#945=ORIENTED_EDGE('',*,*,#1222,.T.);
#946=ORIENTED_EDGE('',*,*,#1223,.F.);
#947=ORIENTED_EDGE('',*,*,#1224,.T.);
#948=ORIENTED_EDGE('',*,*,#1200,.T.);
#949=ORIENTED_EDGE('',*,*,#1204,.T.);
#950=ORIENTED_EDGE('',*,*,#1166,.T.);
#951=ORIENTED_EDGE('',*,*,#1181,.T.);
#952=ORIENTED_EDGE('',*,*,#1178,.T.);
#953=ORIENTED_EDGE('',*,*,#1175,.T.);
#954=ORIENTED_EDGE('',*,*,#1190,.T.);
#955=ORIENTED_EDGE('',*,*,#1192,.T.);
#956=ORIENTED_EDGE('',*,*,#1195,.T.);
#957=ORIENTED_EDGE('',*,*,#1198,.T.);
#958=ORIENTED_EDGE('',*,*,#1170,.T.);
#959=ORIENTED_EDGE('',*,*,#1187,.T.);
#960=ORIENTED_EDGE('',*,*,#1184,.T.);
#961=ORIENTED_EDGE('',*,*,#1206,.T.);
#962=CARTESIAN_POINT('',(12.5,4.0,-12.5));
#963=DIRECTION('',(-0.0,1.0,6.12323399573676E-17));
#964=DIRECTION('',(1.0,0.0,0.0));
#965=SURFACE_STYLE_FILL_AREA(#1225);
#966=ORIENTED_EDGE('',*,*,#1226,.T.);
#967=ORIENTED_EDGE('',*,*,#1227,.T.);
#968=ORIENTED_EDGE('',*,*,#1217,.T.);
#969=ORIENTED_EDGE('',*,*,#1228,.T.);
#970=CARTESIAN_POINT('',(12.5,0.0,0.0));
#971=DIRECTION('',(0.0,-6.12323399573676E-17,1.0));
#972=DIRECTION('',(0.0,-1.0,-6.12323399573676E-17));
#973=SURFACE_STYLE_FILL_AREA(#1229);
#974=ORIENTED_EDGE('',*,*,#1230,.T.);
#975=ORIENTED_EDGE('',*,*,#1231,.T.);
#976=ORIENTED_EDGE('',*,*,#1223,.T.);
#977=ORIENTED_EDGE('',*,*,#1232,.T.);
#978=CARTESIAN_POINT('',(0.0,7.65404249467096E-16,-12.5));
#979=DIRECTION('',(-1.0,0.0,0.0));
#980=DIRECTION('',(0.0,1.0,6.12323399573676E-17));
#981=SURFACE_STYLE_FILL_AREA(#1233);
#982=ORIENTED_EDGE('',*,*,#1221,.T.);
#983=ORIENTED_EDGE('',*,*,#1234,.T.);
#984=ORIENTED_EDGE('',*,*,#1235,.T.);
#985=ORIENTED_EDGE('',*,*,#1236,.T.);
#986=CARTESIAN_POINT('',(12.5,1.53080849893419E-15,-25.0));
#987=DIRECTION('',(0.0,6.12323399573676E-17,-1.0));
#988=DIRECTION('',(1.0,0.0,0.0));
#989=SURFACE_STYLE_FILL_AREA(#1237);
#990=ORIENTED_EDGE('',*,*,#1238,.F.);
#991=ORIENTED_EDGE('',*,*,#1239,.T.);
#992=ORIENTED_EDGE('',*,*,#1226,.F.);
#993=ORIENTED_EDGE('',*,*,#1240,.T.);
#994=ORIENTED_EDGE('',*,*,#1230,.F.);
#995=ORIENTED_EDGE('',*,*,#1241,.T.);
#996=ORIENTED_EDGE('',*,*,#1235,.F.);
#997=ORIENTED_EDGE('',*,*,#1242,.T.);
#998=ORIENTED_EDGE('',*,*,#1133,.T.);
#999=ORIENTED_EDGE('',*,*,#1144,.T.);
#1000=ORIENTED_EDGE('',*,*,#1129,.T.);
#1001=ORIENTED_EDGE('',*,*,#1142,.T.);
#1002=ORIENTED_EDGE('',*,*,#1125,.T.);
#1003=ORIENTED_EDGE('',*,*,#1140,.T.);
#1004=ORIENTED_EDGE('',*,*,#1120,.T.);
#1005=ORIENTED_EDGE('',*,*,#1146,.T.);
#1006=CARTESIAN_POINT('',(12.5,7.65404249467096E-16,-12.5));
#1007=DIRECTION('',(0.0,-1.0,-6.12323399573676E-17));
#1008=DIRECTION('',(0.0,-6.12323399573676E-17,1.0));
#1009=SURFACE_STYLE_FILL_AREA(#1243);
#1010=ORIENTED_EDGE('',*,*,#1219,.T.);
#1011=ORIENTED_EDGE('',*,*,#1244,.T.);
#1012=ORIENTED_EDGE('',*,*,#1238,.T.);
#1013=ORIENTED_EDGE('',*,*,#1245,.T.);
#1014=CARTESIAN_POINT('',(25.0,7.65404249467096E-16,-12.5));
#1015=DIRECTION('',(1.0,0.0,0.0));
#1016=DIRECTION('',(0.0,6.12323399573676E-17,-1.0));
#1017=SURFACE_STYLE_FILL_AREA(#1246);
#1018=ORIENTED_EDGE('',*,*,#1059,.T.);
#1019=ORIENTED_EDGE('',*,*,#1148,.T.);
#1020=ORIENTED_EDGE('',*,*,#1061,.T.);
#1021=ORIENTED_EDGE('',*,*,#1208,.F.);
#1022=CARTESIAN_POINT('',(12.5,9.24608333356251E-16,-15.1));
#1023=DIRECTION('',(0.0,-1.0,-6.12323399573676E-17));
#1024=DIRECTION('',(1.0,0.0,0.0));
#1025=SURFACE_STYLE_FILL_AREA(#1247);
#1026=ORIENTED_EDGE('',*,*,#1239,.F.);
#1027=ORIENTED_EDGE('',*,*,#1244,.F.);
#1028=ORIENTED_EDGE('',*,*,#1218,.F.);
#1029=ORIENTED_EDGE('',*,*,#1227,.F.);
#1030=CARTESIAN_POINT('',(21.0,2.44929359829471E-16,-4.0));
#1031=DIRECTION('',(0.0,-1.0,-6.12323399573676E-17));
#1032=DIRECTION('',(1.0,0.0,0.0));
#1033=SURFACE_STYLE_FILL_AREA(#1248);
#1034=ORIENTED_EDGE('',*,*,#1240,.F.);
#1035=ORIENTED_EDGE('',*,*,#1228,.F.);
#1036=ORIENTED_EDGE('',*,*,#1224,.F.);
#1037=ORIENTED_EDGE('',*,*,#1231,.F.);
#1038=CARTESIAN_POINT('',(4.0,2.44929359829471E-16,-4.0));
#1039=DIRECTION('',(0.0,-1.0,-6.12323399573676E-17));
#1040=DIRECTION('',(1.0,0.0,0.0));
#1041=SURFACE_STYLE_FILL_AREA(#1249);
#1042=ORIENTED_EDGE('',*,*,#1242,.F.);
#1043=ORIENTED_EDGE('',*,*,#1234,.F.);
#1044=ORIENTED_EDGE('',*,*,#1220,.F.);
#1045=ORIENTED_EDGE('',*,*,#1245,.F.);
#1046=CARTESIAN_POINT('',(21.0,1.28587913910472E-15,-21.0));
#1047=DIRECTION('',(0.0,-1.0,-6.12323399573676E-17));
#1048=DIRECTION('',(1.0,0.0,0.0));
#1049=SURFACE_STYLE_FILL_AREA(#1250);
#1050=ORIENTED_EDGE('',*,*,#1241,.F.);
#1051=ORIENTED_EDGE('',*,*,#1232,.F.);
#1052=ORIENTED_EDGE('',*,*,#1222,.F.);
#1053=ORIENTED_EDGE('',*,*,#1236,.F.);
#1054=CARTESIAN_POINT('',(4.0,1.28587913910472E-15,-21.0));
#1055=DIRECTION('',(0.0,-1.0,-6.12323399573676E-17));
#1056=DIRECTION('',(1.0,0.0,0.0));
#1057=SURFACE_STYLE_FILL_AREA(#1251);
#1058=FILL_AREA_STYLE('',(#1252));
#1059=EDGE_CURVE('',#1253,#1254,#1255,.T.);
#1060=EDGE_CURVE('',#1256,#1253,#1257,.T.);
#1061=EDGE_CURVE('',#1258,#1256,#1259,.T.);
#1062=EDGE_CURVE('',#1258,#1254,#1260,.T.);
#1063=FILL_AREA_STYLE('',(#1261));
#1064=EDGE_CURVE('',#1262,#1263,#1264,.T.);
#1065=EDGE_CURVE('',#1265,#1262,#1266,.T.);
#1066=EDGE_CURVE('',#1267,#1265,#1268,.T.);
#1067=EDGE_CURVE('',#1267,#1263,#1269,.T.);
#1068=FILL_AREA_STYLE('',(#1270));
#1069=EDGE_CURVE('',#1271,#1272,#1273,.T.);
#1070=EDGE_CURVE('',#1274,#1271,#1275,.T.);
#1071=EDGE_CURVE('',#1276,#1274,#1277,.T.);
#1072=EDGE_CURVE('',#1276,#1272,#1278,.T.);
#1073=FILL_AREA_STYLE('',(#1279));
#1074=EDGE_CURVE('',#1280,#1281,#1282,.T.);
#1075=EDGE_CURVE('',#1280,#1283,#1284,.T.);
#1076=EDGE_CURVE('',#1285,#1283,#1286,.T.);
#1077=EDGE_CURVE('',#1281,#1285,#1287,.T.);
#1078=FILL_AREA_STYLE('',(#1288));
#1079=EDGE_CURVE('',#1289,#1290,#1291,.T.);
#1080=EDGE_CURVE('',#1292,#1289,#1293,.T.);
#1081=EDGE_CURVE('',#1294,#1292,#1295,.T.);
#1082=EDGE_CURVE('',#1294,#1290,#1296,.T.);
#1083=FILL_AREA_STYLE('',(#1297));
#1084=EDGE_CURVE('',#1290,#1294,#1298,.T.);
#1085=EDGE_CURVE('',#1289,#1292,#1299,.T.);
#1086=FILL_AREA_STYLE('',(#1300));
#1087=EDGE_CURVE('',#1301,#1302,#1303,.T.);
#1088=EDGE_CURVE('',#1301,#1304,#1305,.T.);
#1089=EDGE_CURVE('',#1306,#1304,#1307,.T.);
#1090=EDGE_CURVE('',#1306,#1308,#1309,.T.);
#1091=EDGE_CURVE('',#1308,#1310,#1311,.T.);
#1092=EDGE_CURVE('',#1310,#1312,#1313,.T.);
#1093=EDGE_CURVE('',#1312,#1314,#1315,.T.);
#1094=EDGE_CURVE('',#1314,#1316,#1317,.T.);
#1095=EDGE_CURVE('',#1318,#1316,#1319,.T.);
#1096=EDGE_CURVE('',#1318,#1320,#1321,.T.);
#1097=EDGE_CURVE('',#1322,#1320,#1323,.T.);
#1098=EDGE_CURVE('',#1322,#1324,#1325,.T.);
#1099=EDGE_CURVE('',#1326,#1324,#1327,.T.);
#1100=EDGE_CURVE('',#1326,#1302,#1328,.T.);
#1101=FILL_AREA_STYLE('',(#1329));
#1102=EDGE_CURVE('',#1330,#1331,#1332,.T.);
#1103=EDGE_CURVE('',#1333,#1331,#1334,.T.);
#1104=EDGE_CURVE('',#1335,#1333,#1336,.T.);
#1105=EDGE_CURVE('',#1337,#1335,#1338,.T.);
#1106=EDGE_CURVE('',#1339,#1337,#1340,.T.);
#1107=EDGE_CURVE('',#1330,#1339,#1341,.T.);
#1108=FILL_AREA_STYLE('',(#1342));
#1109=EDGE_CURVE('',#1333,#1314,#1343,.T.);
#1110=EDGE_CURVE('',#1331,#1316,#1344,.T.);
#1111=FILL_AREA_STYLE('',(#1345));
#1112=EDGE_CURVE('',#1330,#1306,#1346,.T.);
#1113=EDGE_CURVE('',#1339,#1308,#1347,.T.);
#1114=FILL_AREA_STYLE('',(#1348));
#1115=EDGE_CURVE('',#1337,#1310,#1349,.T.);
#1116=FILL_AREA_STYLE('',(#1350));
#1117=EDGE_CURVE('',#1335,#1312,#1351,.T.);
#1118=FILL_AREA_STYLE('',(#1352));
#1119=FILL_AREA_STYLE('',(#1353));
#1120=EDGE_CURVE('',#1354,#1355,#1356,.T.);
#1121=EDGE_CURVE('',#1354,#1322,#1357,.T.);
#1122=EDGE_CURVE('',#1320,#1355,#1358,.T.);
#1123=FILL_AREA_STYLE('',(#1359));
#1124=EDGE_CURVE('',#1324,#1360,#1361,.T.);
#1125=EDGE_CURVE('',#1362,#1360,#1363,.T.);
#1126=EDGE_CURVE('',#1362,#1326,#1364,.T.);
#1127=FILL_AREA_STYLE('',(#1365));
#1128=EDGE_CURVE('',#1302,#1366,#1367,.T.);
#1129=EDGE_CURVE('',#1368,#1366,#1369,.T.);
#1130=EDGE_CURVE('',#1368,#1301,#1370,.T.);
#1131=FILL_AREA_STYLE('',(#1371));
#1132=EDGE_CURVE('',#1304,#1372,#1373,.T.);
#1133=EDGE_CURVE('',#1374,#1372,#1375,.T.);
#1134=EDGE_CURVE('',#1374,#1318,#1376,.T.);
#1135=FILL_AREA_STYLE('',(#1377));
#1136=EDGE_CURVE('',#1285,#1281,#1378,.T.);
#1137=EDGE_CURVE('',#1283,#1280,#1379,.T.);
#1138=FILL_AREA_STYLE('',(#1380));
#1139=FILL_AREA_STYLE('',(#1381));
#1140=EDGE_CURVE('',#1360,#1354,#1382,.T.);
#1141=FILL_AREA_STYLE('',(#1383));
#1142=EDGE_CURVE('',#1366,#1362,#1384,.T.);
#1143=FILL_AREA_STYLE('',(#1385));
#1144=EDGE_CURVE('',#1372,#1368,#1386,.T.);
#1145=FILL_AREA_STYLE('',(#1387));
#1146=EDGE_CURVE('',#1355,#1374,#1388,.T.);
#1147=FILL_AREA_STYLE('',(#1389));
#1148=EDGE_CURVE('',#1254,#1258,#1390,.T.);
#1149=FILL_AREA_STYLE('',(#1391));
#1150=EDGE_CURVE('',#1392,#1393,#1394,.T.);
#1151=EDGE_CURVE('',#1392,#1395,#1396,.T.);
#1152=EDGE_CURVE('',#1395,#1397,#1398,.T.);
#1153=EDGE_CURVE('',#1397,#1399,#1400,.T.);
#1154=EDGE_CURVE('',#1399,#1401,#1402,.T.);
#1155=EDGE_CURVE('',#1401,#1403,#1404,.T.);
#1156=EDGE_CURVE('',#1405,#1403,#1406,.T.);
#1157=EDGE_CURVE('',#1407,#1405,#1408,.T.);
#1158=EDGE_CURVE('',#1409,#1407,#1410,.T.);
#1159=EDGE_CURVE('',#1409,#1411,#1412,.T.);
#1160=EDGE_CURVE('',#1411,#1413,#1414,.T.);
#1161=EDGE_CURVE('',#1413,#1415,#1416,.T.);
#1162=EDGE_CURVE('',#1417,#1415,#1418,.T.);
#1163=EDGE_CURVE('',#1393,#1417,#1419,.T.);
#1164=EDGE_CURVE('',#1263,#1267,#1420,.T.);
#1165=FILL_AREA_STYLE('',(#1421));
#1166=EDGE_CURVE('',#1422,#1423,#1424,.T.);
#1167=EDGE_CURVE('',#1422,#1403,#1425,.T.);
#1168=EDGE_CURVE('',#1423,#1401,#1426,.T.);
#1169=FILL_AREA_STYLE('',(#1427));
#1170=EDGE_CURVE('',#1428,#1429,#1430,.T.);
#1171=EDGE_CURVE('',#1428,#1415,#1431,.T.);
#1172=EDGE_CURVE('',#1429,#1413,#1432,.T.);
#1173=FILL_AREA_STYLE('',(#1433));
#1174=EDGE_CURVE('',#1434,#1395,#1435,.T.);
#1175=EDGE_CURVE('',#1436,#1434,#1437,.T.);
#1176=EDGE_CURVE('',#1436,#1397,#1438,.T.);
#1177=FILL_AREA_STYLE('',(#1439));
#1178=EDGE_CURVE('',#1440,#1436,#1441,.T.);
#1179=EDGE_CURVE('',#1440,#1399,#1442,.T.);
#1180=FILL_AREA_STYLE('',(#1443));
#1181=EDGE_CURVE('',#1423,#1440,#1444,.T.);
#1182=FILL_AREA_STYLE('',(#1445));
#1183=EDGE_CURVE('',#1446,#1409,#1447,.T.);
#1184=EDGE_CURVE('',#1448,#1446,#1449,.T.);
#1185=EDGE_CURVE('',#1448,#1411,#1450,.T.);
#1186=FILL_AREA_STYLE('',(#1451));
#1187=EDGE_CURVE('',#1429,#1448,#1452,.T.);
#1188=FILL_AREA_STYLE('',(#1453));
#1189=EDGE_CURVE('',#1454,#1392,#1455,.T.);
#1190=EDGE_CURVE('',#1434,#1454,#1456,.T.);
#1191=FILL_AREA_STYLE('',(#1457));
#1192=EDGE_CURVE('',#1454,#1458,#1459,.T.);
#1193=EDGE_CURVE('',#1393,#1458,#1460,.T.);
#1194=FILL_AREA_STYLE('',(#1461));
#1195=EDGE_CURVE('',#1458,#1462,#1463,.T.);
#1196=EDGE_CURVE('',#1417,#1462,#1464,.T.);
#1197=FILL_AREA_STYLE('',(#1465));
#1198=EDGE_CURVE('',#1462,#1428,#1466,.T.);
#1199=FILL_AREA_STYLE('',(#1467));
#1200=EDGE_CURVE('',#1468,#1469,#1470,.T.);
#1201=EDGE_CURVE('',#1407,#1468,#1471,.T.);
#1202=EDGE_CURVE('',#1405,#1469,#1472,.T.);
#1203=FILL_AREA_STYLE('',(#1473));
#1204=EDGE_CURVE('',#1469,#1422,#1474,.T.);
#1205=FILL_AREA_STYLE('',(#1475));
#1206=EDGE_CURVE('',#1446,#1468,#1476,.T.);
#1207=FILL_AREA_STYLE('',(#1477));
#1208=EDGE_CURVE('',#1253,#1256,#1478,.T.);
#1209=EDGE_CURVE('',#1272,#1276,#1479,.T.);
#1210=FILL_AREA_STYLE('',(#1480));
#1211=EDGE_CURVE('',#1271,#1274,#1481,.T.);
#1212=FILL_AREA_STYLE('',(#1482));
#1213=FILL_AREA_STYLE('',(#1483));
#1214=EDGE_CURVE('',#1262,#1265,#1484,.T.);
#1215=FILL_AREA_STYLE('',(#1485));
#1216=FILL_AREA_STYLE('',(#1486));
#1217=EDGE_CURVE('',#1487,#1488,#1489,.T.);
#1218=EDGE_CURVE('',#1487,#1490,#1491,.T.);
#1219=EDGE_CURVE('',#1492,#1490,#1493,.T.);
#1220=EDGE_CURVE('',#1492,#1494,#1495,.T.);
#1221=EDGE_CURVE('',#1496,#1494,#1497,.T.);
#1222=EDGE_CURVE('',#1496,#1498,#1499,.T.);
#1223=EDGE_CURVE('',#1500,#1498,#1501,.T.);
#1224=EDGE_CURVE('',#1500,#1488,#1502,.T.);
#1225=FILL_AREA_STYLE('',(#1503));
#1226=EDGE_CURVE('',#1504,#1505,#1506,.T.);
#1227=EDGE_CURVE('',#1505,#1487,#1507,.T.);
#1228=EDGE_CURVE('',#1488,#1504,#1508,.T.);
#1229=FILL_AREA_STYLE('',(#1509));
#1230=EDGE_CURVE('',#1510,#1511,#1512,.T.);
#1231=EDGE_CURVE('',#1511,#1500,#1513,.T.);
#1232=EDGE_CURVE('',#1498,#1510,#1514,.T.);
#1233=FILL_AREA_STYLE('',(#1515));
#1234=EDGE_CURVE('',#1494,#1516,#1517,.T.);
#1235=EDGE_CURVE('',#1516,#1518,#1519,.T.);
#1236=EDGE_CURVE('',#1518,#1496,#1520,.T.);
#1237=FILL_AREA_STYLE('',(#1521));
#1238=EDGE_CURVE('',#1522,#1523,#1524,.T.);
#1239=EDGE_CURVE('',#1522,#1505,#1525,.T.);
#1240=EDGE_CURVE('',#1504,#1511,#1526,.T.);
#1241=EDGE_CURVE('',#1510,#1518,#1527,.T.);
#1242=EDGE_CURVE('',#1516,#1523,#1528,.T.);
#1243=FILL_AREA_STYLE('',(#1529));
#1244=EDGE_CURVE('',#1490,#1522,#1530,.T.);
#1245=EDGE_CURVE('',#1523,#1492,#1531,.T.);
#1246=FILL_AREA_STYLE('',(#1532));
#1247=FILL_AREA_STYLE('',(#1533));
#1248=FILL_AREA_STYLE('',(#1534));
#1249=FILL_AREA_STYLE('',(#1535));
#1250=FILL_AREA_STYLE('',(#1536));
#1251=FILL_AREA_STYLE('',(#1537));
#1252=FILL_AREA_STYLE_COLOUR('',#1538);
#1253=VERTEX_POINT('',#1539);
#1254=VERTEX_POINT('',#1540);
#1255=LINE('',#1541,#1542);
#1256=VERTEX_POINT('',#1543);
#1257=CIRCLE('',#1544,0.75);
#1258=VERTEX_POINT('',#1545);
#1259=LINE('',#1546,#1547);
#1260=CIRCLE('',#1548,0.75);
#1261=FILL_AREA_STYLE_COLOUR('',#1549);
#1262=VERTEX_POINT('',#1550);
#1263=VERTEX_POINT('',#1551);
#1264=LINE('',#1552,#1553);
#1265=VERTEX_POINT('',#1554);
#1266=CIRCLE('',#1555,1.3);
#1267=VERTEX_POINT('',#1556);
#1268=LINE('',#1557,#1558);
#1269=CIRCLE('',#1559,1.99);
#1270=FILL_AREA_STYLE_COLOUR('',#1560);
#1271=VERTEX_POINT('',#1561);
#1272=VERTEX_POINT('',#1562);
#1273=LINE('',#1563,#1564);
#1274=VERTEX_POINT('',#1565);
#1275=CIRCLE('',#1566,0.4);
#1276=VERTEX_POINT('',#1567);
#1277=LINE('',#1568,#1569);
#1278=CIRCLE('',#1570,0.4);
#1279=FILL_AREA_STYLE_COLOUR('',#1571);
#1280=VERTEX_POINT('',#1572);
#1281=VERTEX_POINT('',#1573);
#1282=LINE('',#1574,#1575);
#1283=VERTEX_POINT('',#1576);
#1284=CIRCLE('',#1577,1.5);
#1285=VERTEX_POINT('',#1578);
#1286=LINE('',#1579,#1580);
#1287=CIRCLE('',#1581,1.5);
#1288=FILL_AREA_STYLE_COLOUR('',#1582);
#1289=VERTEX_POINT('',#1583);
#1290=VERTEX_POINT('',#1584);
#1291=LINE('',#1585,#1586);
#1292=VERTEX_POINT('',#1587);
#1293=CIRCLE('',#1588,2.0);
#1294=VERTEX_POINT('',#1589);
#1295=LINE('',#1590,#1591);
#1296=CIRCLE('',#1592,2.0);
#1297=FILL_AREA_STYLE_COLOUR('',#1593);
#1298=CIRCLE('',#1594,2.0);
#1299=CIRCLE('',#1595,2.0);
#1300=FILL_AREA_STYLE_COLOUR('',#1596);
#1301=VERTEX_POINT('',#1597);
#1302=VERTEX_POINT('',#1598);
#1303=LINE('',#1599,#1600);
#1304=VERTEX_POINT('',#1601);
#1305=CIRCLE('',#1602,4.0);
#1306=VERTEX_POINT('',#1603);
#1307=LINE('',#1604,#1605);
#1308=VERTEX_POINT('',#1606);
#1309=LINE('',#1607,#1608);
#1310=VERTEX_POINT('',#1609);
#1311=CIRCLE('',#1610,1.0);
#1312=VERTEX_POINT('',#1611);
#1313=LINE('',#1612,#1613);
#1314=VERTEX_POINT('',#1614);
#1315=CIRCLE('',#1615,1.0);
#1316=VERTEX_POINT('',#1616);
#1317=LINE('',#1617,#1618);
#1318=VERTEX_POINT('',#1619);
#1319=LINE('',#1620,#1621);
#1320=VERTEX_POINT('',#1622);
#1321=CIRCLE('',#1623,4.0);
#1322=VERTEX_POINT('',#1624);
#1323=LINE('',#1625,#1626);
#1324=VERTEX_POINT('',#1627);
#1325=CIRCLE('',#1628,4.0);
#1326=VERTEX_POINT('',#1629);
#1327=LINE('',#1630,#1631);
#1328=CIRCLE('',#1632,4.0);
#1329=FILL_AREA_STYLE_COLOUR('',#1633);
#1330=VERTEX_POINT('',#1634);
#1331=VERTEX_POINT('',#1635);
#1332=LINE('',#1636,#1637);
#1333=VERTEX_POINT('',#1638);
#1334=LINE('',#1639,#1640);
#1335=VERTEX_POINT('',#1641);
#1336=CIRCLE('',#1642,1.0);
#1337=VERTEX_POINT('',#1643);
#1338=LINE('',#1644,#1645);
#1339=VERTEX_POINT('',#1646);
#1340=CIRCLE('',#1647,1.0);
#1341=LINE('',#1648,#1649);
#1342=FILL_AREA_STYLE_COLOUR('',#1650);
#1343=LINE('',#1651,#1652);
#1344=LINE('',#1653,#1654);
#1345=FILL_AREA_STYLE_COLOUR('',#1655);
#1346=LINE('',#1656,#1657);
#1347=LINE('',#1658,#1659);
#1348=FILL_AREA_STYLE_COLOUR('',#1660);
#1349=LINE('',#1661,#1662);
#1350=FILL_AREA_STYLE_COLOUR('',#1663);
#1351=LINE('',#1664,#1665);
#1352=FILL_AREA_STYLE_COLOUR('',#1666);
#1353=FILL_AREA_STYLE_COLOUR('',#1667);
#1354=VERTEX_POINT('',#1668);
#1355=VERTEX_POINT('',#1669);
#1356=LINE('',#1670,#1671);
#1357=LINE('',#1672,#1673);
#1358=LINE('',#1674,#1675);
#1359=FILL_AREA_STYLE_COLOUR('',#1676);
#1360=VERTEX_POINT('',#1677);
#1361=LINE('',#1678,#1679);
#1362=VERTEX_POINT('',#1680);
#1363=LINE('',#1681,#1682);
#1364=LINE('',#1683,#1684);
#1365=FILL_AREA_STYLE_COLOUR('',#1685);
#1366=VERTEX_POINT('',#1686);
#1367=LINE('',#1687,#1688);
#1368=VERTEX_POINT('',#1689);
#1369=LINE('',#1690,#1691);
#1370=LINE('',#1692,#1693);
#1371=FILL_AREA_STYLE_COLOUR('',#1694);
#1372=VERTEX_POINT('',#1695);
#1373=LINE('',#1696,#1697);
#1374=VERTEX_POINT('',#1698);
#1375=LINE('',#1699,#1700);
#1376=LINE('',#1701,#1702);
#1377=FILL_AREA_STYLE_COLOUR('',#1703);
#1378=CIRCLE('',#1704,1.5);
#1379=CIRCLE('',#1705,1.5);
#1380=FILL_AREA_STYLE_COLOUR('',#1706);
#1381=FILL_AREA_STYLE_COLOUR('',#1707);
#1382=CIRCLE('',#1708,4.0);
#1383=FILL_AREA_STYLE_COLOUR('',#1709);
#1384=CIRCLE('',#1710,4.0);
#1385=FILL_AREA_STYLE_COLOUR('',#1711);
#1386=CIRCLE('',#1712,4.0);
#1387=FILL_AREA_STYLE_COLOUR('',#1713);
#1388=CIRCLE('',#1714,4.0);
#1389=FILL_AREA_STYLE_COLOUR('',#1715);
#1390=CIRCLE('',#1716,0.75);
#1391=FILL_AREA_STYLE_COLOUR('',#1717);
#1392=VERTEX_POINT('',#1718);
#1393=VERTEX_POINT('',#1719);
#1394=LINE('',#1720,#1721);
#1395=VERTEX_POINT('',#1722);
#1396=LINE('',#1723,#1724);
#1397=VERTEX_POINT('',#1725);
#1398=LINE('',#1726,#1727);
#1399=VERTEX_POINT('',#1728);
#1400=LINE('',#1729,#1730);
#1401=VERTEX_POINT('',#1731);
#1402=LINE('',#1732,#1733);
#1403=VERTEX_POINT('',#1734);
#1404=LINE('',#1735,#1736);
#1405=VERTEX_POINT('',#1737);
#1406=LINE('',#1738,#1739);
#1407=VERTEX_POINT('',#1740);
#1408=LINE('',#1741,#1742);
#1409=VERTEX_POINT('',#1743);
#1410=LINE('',#1744,#1745);
#1411=VERTEX_POINT('',#1746);
#1412=LINE('',#1747,#1748);
#1413=VERTEX_POINT('',#1749);
#1414=LINE('',#1750,#1751);
#1415=VERTEX_POINT('',#1752);
#1416=LINE('',#1753,#1754);
#1417=VERTEX_POINT('',#1755);
#1418=LINE('',#1756,#1757);
#1419=LINE('',#1758,#1759);
#1420=CIRCLE('',#1760,1.99);
#1421=FILL_AREA_STYLE_COLOUR('',#1761);
#1422=VERTEX_POINT('',#1762);
#1423=VERTEX_POINT('',#1763);
#1424=LINE('',#1764,#1765);
#1425=LINE('',#1766,#1767);
#1426=LINE('',#1768,#1769);
#1427=FILL_AREA_STYLE_COLOUR('',#1770);
#1428=VERTEX_POINT('',#1771);
#1429=VERTEX_POINT('',#1772);
#1430=LINE('',#1773,#1774);
#1431=LINE('',#1775,#1776);
#1432=LINE('',#1777,#1778);
#1433=FILL_AREA_STYLE_COLOUR('',#1779);
#1434=VERTEX_POINT('',#1780);
#1435=LINE('',#1781,#1782);
#1436=VERTEX_POINT('',#1783);
#1437=LINE('',#1784,#1785);
#1438=LINE('',#1786,#1787);
#1439=FILL_AREA_STYLE_COLOUR('',#1788);
#1440=VERTEX_POINT('',#1789);
#1441=LINE('',#1790,#1791);
#1442=LINE('',#1792,#1793);
#1443=FILL_AREA_STYLE_COLOUR('',#1794);
#1444=LINE('',#1795,#1796);
#1445=FILL_AREA_STYLE_COLOUR('',#1797);
#1446=VERTEX_POINT('',#1798);
#1447=LINE('',#1799,#1800);
#1448=VERTEX_POINT('',#1801);
#1449=LINE('',#1802,#1803);
#1450=LINE('',#1804,#1805);
#1451=FILL_AREA_STYLE_COLOUR('',#1806);
#1452=LINE('',#1807,#1808);
#1453=FILL_AREA_STYLE_COLOUR('',#1809);
#1454=VERTEX_POINT('',#1810);
#1455=LINE('',#1811,#1812);
#1456=LINE('',#1813,#1814);
#1457=FILL_AREA_STYLE_COLOUR('',#1815);
#1458=VERTEX_POINT('',#1816);
#1459=LINE('',#1817,#1818);
#1460=LINE('',#1819,#1820);
#1461=FILL_AREA_STYLE_COLOUR('',#1821);
#1462=VERTEX_POINT('',#1822);
#1463=LINE('',#1823,#1824);
#1464=LINE('',#1825,#1826);
#1465=FILL_AREA_STYLE_COLOUR('',#1827);
#1466=LINE('',#1828,#1829);
#1467=FILL_AREA_STYLE_COLOUR('',#1830);
#1468=VERTEX_POINT('',#1831);
#1469=VERTEX_POINT('',#1832);
#1470=LINE('',#1833,#1834);
#1471=LINE('',#1835,#1836);
#1472=LINE('',#1837,#1838);
#1473=FILL_AREA_STYLE_COLOUR('',#1839);
#1474=LINE('',#1840,#1841);
#1475=FILL_AREA_STYLE_COLOUR('',#1842);
#1476=LINE('',#1843,#1844);
#1477=FILL_AREA_STYLE_COLOUR('',#1845);
#1478=CIRCLE('',#1846,0.75);
#1479=CIRCLE('',#1847,0.4);
#1480=FILL_AREA_STYLE_COLOUR('',#1848);
#1481=CIRCLE('',#1849,0.4);
#1482=FILL_AREA_STYLE_COLOUR('',#1850);
#1483=FILL_AREA_STYLE_COLOUR('',#1851);
#1484=CIRCLE('',#1852,1.3);
#1485=FILL_AREA_STYLE_COLOUR('',#1853);
#1486=FILL_AREA_STYLE_COLOUR('',#1854);
#1487=VERTEX_POINT('',#1855);
#1488=VERTEX_POINT('',#1856);
#1489=LINE('',#1857,#1858);
#1490=VERTEX_POINT('',#1859);
#1491=CIRCLE('',#1860,4.0);
#1492=VERTEX_POINT('',#1861);
#1493=LINE('',#1862,#1863);
#1494=VERTEX_POINT('',#1864);
#1495=CIRCLE('',#1865,4.0);
#1496=VERTEX_POINT('',#1866);
#1497=LINE('',#1867,#1868);
#1498=VERTEX_POINT('',#1869);
#1499=CIRCLE('',#1870,4.0);
#1500=VERTEX_POINT('',#1871);
#1501=LINE('',#1872,#1873);
#1502=CIRCLE('',#1874,4.0);
#1503=FILL_AREA_STYLE_COLOUR('',#1875);
#1504=VERTEX_POINT('',#1876);
#1505=VERTEX_POINT('',#1877);
#1506=LINE('',#1878,#1879);
#1507=LINE('',#1880,#1881);
#1508=LINE('',#1882,#1883);
#1509=FILL_AREA_STYLE_COLOUR('',#1884);
#1510=VERTEX_POINT('',#1885);
#1511=VERTEX_POINT('',#1886);
#1512=LINE('',#1887,#1888);
#1513=LINE('',#1889,#1890);
#1514=LINE('',#1891,#1892);
#1515=FILL_AREA_STYLE_COLOUR('',#1893);
#1516=VERTEX_POINT('',#1894);
#1517=LINE('',#1895,#1896);
#1518=VERTEX_POINT('',#1897);
#1519=LINE('',#1898,#1899);
#1520=LINE('',#1900,#1901);
#1521=FILL_AREA_STYLE_COLOUR('',#1902);
#1522=VERTEX_POINT('',#1903);
#1523=VERTEX_POINT('',#1904);
#1524=LINE('',#1905,#1906);
#1525=CIRCLE('',#1907,4.0);
#1526=CIRCLE('',#1908,4.0);
#1527=CIRCLE('',#1909,4.0);
#1528=CIRCLE('',#1910,4.0);
#1529=FILL_AREA_STYLE_COLOUR('',#1911);
#1530=LINE('',#1912,#1913);
#1531=LINE('',#1914,#1915);
#1532=FILL_AREA_STYLE_COLOUR('',#1916);
#1533=FILL_AREA_STYLE_COLOUR('',#1917);
#1534=FILL_AREA_STYLE_COLOUR('',#1918);
#1535=FILL_AREA_STYLE_COLOUR('',#1919);
#1536=FILL_AREA_STYLE_COLOUR('',#1920);
#1537=FILL_AREA_STYLE_COLOUR('',#1921);
#1538=COLOUR_RGB('',0.847058832645416,0.372549027204514,0.254901975393295);
#1539=CARTESIAN_POINT('',(13.25,4.0,-15.1));
#1540=CARTESIAN_POINT('',(13.25,9.24608333356251E-16,-15.1));
#1541=CARTESIAN_POINT('',(13.25,8.88178419700125E-16,-15.1));
#1542=VECTOR('',#1922,1.0);
#1543=CARTESIAN_POINT('',(11.75,4.0,-15.1));
#1544=AXIS2_PLACEMENT_3D('',#1923,#1924,#1925);
#1545=CARTESIAN_POINT('',(11.75,9.24608333356251E-16,-15.1));
#1546=CARTESIAN_POINT('',(11.75,9.24608333356251E-16,-15.1));
#1547=VECTOR('',#1926,0.75);
#1548=AXIS2_PLACEMENT_3D('',#1927,#1928,#1929);
#1549=COLOUR_RGB('',0.596078455448151,0.596078455448151,0.596078455448151);
#1550=CARTESIAN_POINT('',(11.2,4.7,-15.1));
#1551=CARTESIAN_POINT('',(10.51,4.01,-15.1));
#1552=CARTESIAN_POINT('',(10.5,4.0,-15.1));
#1553=VECTOR('',#1930,1.0);
#1554=CARTESIAN_POINT('',(13.8,4.7,-15.1));
#1555=AXIS2_PLACEMENT_3D('',#1931,#1932,#1933);
#1556=CARTESIAN_POINT('',(14.49,4.01,-15.1));
#1557=CARTESIAN_POINT('',(14.5,4.0,-15.1));
#1558=VECTOR('',#1934,2.0);
#1559=AXIS2_PLACEMENT_3D('',#1935,#1936,#1937);
#1560=COLOUR_RGB('',0.596078455448151,0.596078455448151,0.596078455448151);
#1561=CARTESIAN_POINT('',(12.9,-2.0,-15.1));
#1562=CARTESIAN_POINT('',(12.9,4.0,-15.1));
#1563=CARTESIAN_POINT('',(12.9,-2.0,-15.1));
#1564=VECTOR('',#1938,1.0);
#1565=CARTESIAN_POINT('',(12.1,-2.0,-15.1));
#1566=AXIS2_PLACEMENT_3D('',#1939,#1940,#1941);
#1567=CARTESIAN_POINT('',(12.1,4.0,-15.1));
#1568=CARTESIAN_POINT('',(12.1,-2.0,-15.1));
#1569=VECTOR('',#1942,0.4);
#1570=AXIS2_PLACEMENT_3D('',#1943,#1944,#1945);
#1571=COLOUR_RGB('',0.901960790157318,0.890196084976196,0.792156875133514);
#1572=CARTESIAN_POINT('',(11.0,-0.00999999999999908,-15.1));
#1573=CARTESIAN_POINT('',(11.0,9.24608333356251E-16,-15.1));
#1574=CARTESIAN_POINT('',(11.0,9.24607612695638E-16,-15.1));
#1575=VECTOR('',#1946,1.0);
#1576=CARTESIAN_POINT('',(14.0,-0.00999999999999908,-15.1));
#1577=AXIS2_PLACEMENT_3D('',#1947,#1948,#1949);
#1578=CARTESIAN_POINT('',(14.0,9.24608333356251E-16,-15.1));
#1579=CARTESIAN_POINT('',(14.0,9.24608333356251E-16,-15.1));
#1580=VECTOR('',#1950,1.5);
#1581=AXIS2_PLACEMENT_3D('',#1951,#1952,#1953);
#1582=COLOUR_RGB('',1.0,0.996078431606293,0.996078431606293);
#1583=CARTESIAN_POINT('',(14.5,-0.00999999999999908,-15.1));
#1584=CARTESIAN_POINT('',(14.5,-0.199999999999999,-15.1));
#1585=CARTESIAN_POINT('',(14.5,-0.199999999999999,-15.1));
#1586=VECTOR('',#1954,1.0);
#1587=CARTESIAN_POINT('',(10.5,-0.00999999999999908,-15.1));
#1588=AXIS2_PLACEMENT_3D('',#1955,#1956,#1957);
#1589=CARTESIAN_POINT('',(10.5,-0.199999999999999,-15.1));
#1590=CARTESIAN_POINT('',(10.5,-0.199999999999999,-15.1));
#1591=VECTOR('',#1958,2.0);
#1592=AXIS2_PLACEMENT_3D('',#1959,#1960,#1961);
#1593=COLOUR_RGB('',1.0,0.996078431606293,0.996078431606293);
#1594=AXIS2_PLACEMENT_3D('',#1962,#1963,#1964);
#1595=AXIS2_PLACEMENT_3D('',#1965,#1966,#1967);
#1596=COLOUR_RGB('',1.0,0.996078431606293,0.996078431606293);
#1597=CARTESIAN_POINT('',(20.8,-0.199999999999998,-24.8));
#1598=CARTESIAN_POINT('',(4.2,-0.199999999999998,-24.8));
#1599=CARTESIAN_POINT('',(22.5,-0.199999999999998,-24.8));
#1600=VECTOR('',#1968,1.0);
#1601=CARTESIAN_POINT('',(24.8,-0.199999999999999,-20.8));
#1602=AXIS2_PLACEMENT_3D('',#1969,#1970,#1971);
#1603=CARTESIAN_POINT('',(24.8,-0.199999999999999,-20.7));
#1604=CARTESIAN_POINT('',(24.8,-0.2,-2.5));
#1605=VECTOR('',#1972,1.0);
#1606=CARTESIAN_POINT('',(27.8,-0.199999999999999,-20.7));
#1607=CARTESIAN_POINT('',(24.8,-0.199999999999999,-20.7));
#1608=VECTOR('',#1973,1.0);
#1609=CARTESIAN_POINT('',(28.8,-0.199999999999999,-19.7));
#1610=AXIS2_PLACEMENT_3D('',#1974,#1975,#1976);
#1611=CARTESIAN_POINT('',(28.8,-0.199999999999999,-16.7));
#1612=CARTESIAN_POINT('',(28.8,-0.199999999999999,-19.7));
#1613=VECTOR('',#1977,1.0);
#1614=CARTESIAN_POINT('',(27.8,-0.199999999999999,-15.7));
#1615=AXIS2_PLACEMENT_3D('',#1978,#1979,#1980);
#1616=CARTESIAN_POINT('',(24.8,-0.199999999999999,-15.7));
#1617=CARTESIAN_POINT('',(27.8,-0.199999999999999,-15.7));
#1618=VECTOR('',#1981,1.0);
#1619=CARTESIAN_POINT('',(24.8,-0.2,-4.2));
#1620=CARTESIAN_POINT('',(24.8,-0.2,-2.5));
#1621=VECTOR('',#1982,1.0);
#1622=CARTESIAN_POINT('',(20.8,-0.2,-0.199999999999999));
#1623=AXIS2_PLACEMENT_3D('',#1983,#1984,#1985);
#1624=CARTESIAN_POINT('',(4.2,-0.2,-0.199999999999999));
#1625=CARTESIAN_POINT('',(2.5,-0.2,-0.199999999999999));
#1626=VECTOR('',#1986,1.0);
#1627=CARTESIAN_POINT('',(0.2,-0.2,-4.2));
#1628=AXIS2_PLACEMENT_3D('',#1987,#1988,#1989);
#1629=CARTESIAN_POINT('',(0.2,-0.199999999999999,-20.8));
#1630=CARTESIAN_POINT('',(0.2,-0.199999999999999,-22.5));
#1631=VECTOR('',#1990,1.0);
#1632=AXIS2_PLACEMENT_3D('',#1991,#1992,#1993);
#1633=COLOUR_RGB('',1.0,0.996078431606293,0.996078431606293);
#1634=CARTESIAN_POINT('',(24.8,-0.0799999999999987,-20.7));
#1635=CARTESIAN_POINT('',(24.8,-0.079999999999999,-15.7));
#1636=CARTESIAN_POINT('',(24.8,-0.0799999999999992,-12.5));
#1637=VECTOR('',#1994,10.0);
#1638=CARTESIAN_POINT('',(27.8,-0.079999999999999,-15.7));
#1639=CARTESIAN_POINT('',(27.8,-0.079999999999999,-15.7));
#1640=VECTOR('',#1995,1.0);
#1641=CARTESIAN_POINT('',(28.8,-0.079999999999999,-16.7));
#1642=AXIS2_PLACEMENT_3D('',#1996,#1997,#1998);
#1643=CARTESIAN_POINT('',(28.8,-0.0799999999999988,-19.7));
#1644=CARTESIAN_POINT('',(28.8,-0.0799999999999988,-19.7));
#1645=VECTOR('',#1999,1.0);
#1646=CARTESIAN_POINT('',(27.8,-0.0799999999999987,-20.7));
#1647=AXIS2_PLACEMENT_3D('',#2000,#2001,#2002);
#1648=CARTESIAN_POINT('',(24.8,-0.0799999999999987,-20.7));
#1649=VECTOR('',#2003,1.0);
#1650=COLOUR_RGB('',1.0,0.996078431606293,0.996078431606293);
#1651=CARTESIAN_POINT('',(27.8,-0.079999999999999,-15.7));
#1652=VECTOR('',#2004,1.0);
#1653=CARTESIAN_POINT('',(24.8,-0.079999999999999,-15.7));
#1654=VECTOR('',#2005,1.0);
#1655=COLOUR_RGB('',1.0,0.996078431606293,0.996078431606293);
#1656=CARTESIAN_POINT('',(24.8,-0.0799999999999987,-20.7));
#1657=VECTOR('',#2006,1.0);
#1658=CARTESIAN_POINT('',(27.8,-0.0799999999999987,-20.7));
#1659=VECTOR('',#2007,1.0);
#1660=COLOUR_RGB('',1.0,0.996078431606293,0.996078431606293);
#1661=CARTESIAN_POINT('',(28.8,-0.0799999999999988,-19.7));
#1662=VECTOR('',#2008,1.0);
#1663=COLOUR_RGB('',1.0,0.996078431606293,0.996078431606293);
#1664=CARTESIAN_POINT('',(28.8,-0.079999999999999,-16.7));
#1665=VECTOR('',#2009,1.0);
#1666=COLOUR_RGB('',1.0,0.996078431606293,0.996078431606293);
#1667=COLOUR_RGB('',1.0,0.996078431606293,0.996078431606293);
#1668=CARTESIAN_POINT('',(4.2,1.22464679914735E-17,-0.199999999999999));
#1669=CARTESIAN_POINT('',(20.8,1.22464679914735E-17,-0.199999999999999));
#1670=CARTESIAN_POINT('',(17.5,1.22464679914734E-17,-0.199999999999998));
#1671=VECTOR('',#2010,10.0);
#1672=CARTESIAN_POINT('',(4.2,1.22464679914735E-17,-0.199999999999999));
#1673=VECTOR('',#2011,1.0);
#1674=CARTESIAN_POINT('',(20.8,1.22464679914735E-17,-0.199999999999999));
#1675=VECTOR('',#2012,1.0);
#1676=COLOUR_RGB('',1.0,0.996078431606293,0.996078431606293);
#1677=CARTESIAN_POINT('',(0.2,2.57175827820944E-16,-4.2));
#1678=CARTESIAN_POINT('',(0.2,2.57175827820944E-16,-4.2));
#1679=VECTOR('',#2013,1.0);
#1680=CARTESIAN_POINT('',(0.2,1.27363267111325E-15,-20.8));
#1681=CARTESIAN_POINT('',(0.2,4.59242549680257E-16,-7.5));
#1682=VECTOR('',#2014,10.0);
#1683=CARTESIAN_POINT('',(0.2,-0.199999999999999,-20.8));
#1684=VECTOR('',#2015,1.0);
#1685=COLOUR_RGB('',1.0,0.996078431606293,0.996078431606293);
#1686=CARTESIAN_POINT('',(4.2,1.51856203094272E-15,-24.8));
#1687=CARTESIAN_POINT('',(4.2,1.51856203094272E-15,-24.8));
#1688=VECTOR('',#2016,1.0);
#1689=CARTESIAN_POINT('',(20.8,1.51856203094272E-15,-24.8));
#1690=CARTESIAN_POINT('',(7.5,1.51856203094272E-15,-24.8));
#1691=VECTOR('',#2017,10.0);
#1692=CARTESIAN_POINT('',(20.8,-0.199999999999998,-24.8));
#1693=VECTOR('',#2018,1.0);
#1694=COLOUR_RGB('',1.0,0.996078431606293,0.996078431606293);
#1695=CARTESIAN_POINT('',(24.8,1.27363267111325E-15,-20.8));
#1696=CARTESIAN_POINT('',(24.8,1.27363267111325E-15,-20.8));
#1697=VECTOR('',#2019,1.0);
#1698=CARTESIAN_POINT('',(24.8,2.57175827820944E-16,-4.2));
#1699=CARTESIAN_POINT('',(24.8,1.07156594925393E-15,-17.5));
#1700=VECTOR('',#2020,10.0);
#1701=CARTESIAN_POINT('',(24.8,-0.2,-4.2));
#1702=VECTOR('',#2021,1.0);
#1703=COLOUR_RGB('',0.901960790157318,0.890196084976196,0.792156875133514);
#1704=AXIS2_PLACEMENT_3D('',#2022,#2023,#2024);
#1705=AXIS2_PLACEMENT_3D('',#2025,#2026,#2027);
#1706=COLOUR_RGB('',0.901960790157318,0.890196084976196,0.792156875133514);
#1707=COLOUR_RGB('',1.0,0.996078431606293,0.996078431606293);
#1708=AXIS2_PLACEMENT_3D('',#2028,#2029,#2030);
#1709=COLOUR_RGB('',1.0,0.996078431606293,0.996078431606293);
#1710=AXIS2_PLACEMENT_3D('',#2031,#2032,#2033);
#1711=COLOUR_RGB('',1.0,0.996078431606293,0.996078431606293);
#1712=AXIS2_PLACEMENT_3D('',#2034,#2035,#2036);
#1713=COLOUR_RGB('',1.0,0.996078431606293,0.996078431606293);
#1714=AXIS2_PLACEMENT_3D('',#2037,#2038,#2039);
#1715=COLOUR_RGB('',0.847058832645416,0.372549027204514,0.254901975393295);
#1716=AXIS2_PLACEMENT_3D('',#2040,#2041,#2042);
#1717=COLOUR_RGB('',0.901960790157318,0.890196084976196,0.792156875133514);
#1718=CARTESIAN_POINT('',(12.0,4.01,-22.5));
#1719=CARTESIAN_POINT('',(12.0,4.01,-19.5));
#1720=CARTESIAN_POINT('',(12.0,4.01,-22.5));
#1721=VECTOR('',#2043,1.0);
#1722=CARTESIAN_POINT('',(2.5,4.01,-22.5));
#1723=CARTESIAN_POINT('',(12.5,4.01,-22.5));
#1724=VECTOR('',#2044,1.0);
#1725=CARTESIAN_POINT('',(2.5,4.01,-4.5));
#1726=CARTESIAN_POINT('',(2.5,4.01,-12.5));
#1727=VECTOR('',#2045,1.0);
#1728=CARTESIAN_POINT('',(4.5,4.01,-2.5));
#1729=CARTESIAN_POINT('',(4.5,4.01,-2.5));
#1730=VECTOR('',#2046,1.0);
#1731=CARTESIAN_POINT('',(22.5,4.01,-2.5));
#1732=CARTESIAN_POINT('',(12.5,4.01,-2.5));
#1733=VECTOR('',#2047,1.0);
#1734=CARTESIAN_POINT('',(22.5,4.01,-11.5));
#1735=CARTESIAN_POINT('',(22.5,4.01,-12.5));
#1736=VECTOR('',#2048,1.0);
#1737=CARTESIAN_POINT('',(20.0,4.01,-11.5));
#1738=CARTESIAN_POINT('',(20.0,4.01,-11.5));
#1739=VECTOR('',#2049,1.0);
#1740=CARTESIAN_POINT('',(20.0,4.01,-12.0));
#1741=CARTESIAN_POINT('',(20.0,4.01,-12.0));
#1742=VECTOR('',#2050,1.0);
#1743=CARTESIAN_POINT('',(22.5,4.01,-12.0));
#1744=CARTESIAN_POINT('',(22.5,4.01,-12.0));
#1745=VECTOR('',#2051,1.0);
#1746=CARTESIAN_POINT('',(22.5,4.01,-20.5));
#1747=CARTESIAN_POINT('',(22.5,4.01,-12.5));
#1748=VECTOR('',#2052,1.0);
#1749=CARTESIAN_POINT('',(20.5,4.01,-22.5));
#1750=CARTESIAN_POINT('',(20.5,4.01,-22.5));
#1751=VECTOR('',#2053,1.0);
#1752=CARTESIAN_POINT('',(12.5,4.01,-22.5));
#1753=CARTESIAN_POINT('',(12.5,4.01,-22.5));
#1754=VECTOR('',#2054,1.0);
#1755=CARTESIAN_POINT('',(12.5,4.01,-19.5));
#1756=CARTESIAN_POINT('',(12.5,4.01,-19.5));
#1757=VECTOR('',#2055,1.0);
#1758=CARTESIAN_POINT('',(12.0,4.01,-19.5));
#1759=VECTOR('',#2056,1.0);
#1760=AXIS2_PLACEMENT_3D('',#2057,#2058,#2059);
#1761=COLOUR_RGB('',0.901960790157318,0.890196084976196,0.792156875133514);
#1762=CARTESIAN_POINT('',(22.5,4.0,-11.5));
#1763=CARTESIAN_POINT('',(22.5,4.0,-2.5));
#1764=CARTESIAN_POINT('',(22.5,4.0,-16.5));
#1765=VECTOR('',#2060,10.0);
#1766=CARTESIAN_POINT('',(22.5,3.01,-11.5));
#1767=VECTOR('',#2061,1.0);
#1768=CARTESIAN_POINT('',(22.5,4.0,-2.5));
#1769=VECTOR('',#2062,1.0);
#1770=COLOUR_RGB('',0.901960790157318,0.890196084976196,0.792156875133514);
#1771=CARTESIAN_POINT('',(12.5,4.0,-22.5));
#1772=CARTESIAN_POINT('',(20.5,4.0,-22.5));
#1773=CARTESIAN_POINT('',(7.5,4.0,-22.5));
#1774=VECTOR('',#2063,10.0);
#1775=CARTESIAN_POINT('',(12.5,3.01,-22.5));
#1776=VECTOR('',#2064,1.0);
#1777=CARTESIAN_POINT('',(20.5,4.0,-22.5));
#1778=VECTOR('',#2065,1.0);
#1779=COLOUR_RGB('',0.901960790157318,0.890196084976196,0.792156875133514);
#1780=CARTESIAN_POINT('',(2.5,4.0,-22.5));
#1781=CARTESIAN_POINT('',(2.5,4.0,-22.5));
#1782=VECTOR('',#2066,1.0);
#1783=CARTESIAN_POINT('',(2.5,4.0,-4.5));
#1784=CARTESIAN_POINT('',(2.5,4.0,-8.5));
#1785=VECTOR('',#2067,10.0);
#1786=CARTESIAN_POINT('',(2.5,4.0,-4.5));
#1787=VECTOR('',#2068,1.0);
#1788=COLOUR_RGB('',0.901960790157318,0.890196084976196,0.792156875133514);
#1789=CARTESIAN_POINT('',(4.5,4.0,-2.5));
#1790=CARTESIAN_POINT('',(4.0,4.0,-3.0));
#1791=VECTOR('',#2069,10.0);
#1792=CARTESIAN_POINT('',(4.5,4.0,-2.5));
#1793=VECTOR('',#2070,1.0);
#1794=COLOUR_RGB('',0.901960790157318,0.890196084976196,0.792156875133514);
#1795=CARTESIAN_POINT('',(17.5,4.0,-2.5));
#1796=VECTOR('',#2071,10.0);
#1797=COLOUR_RGB('',0.901960790157318,0.890196084976196,0.792156875133514);
#1798=CARTESIAN_POINT('',(22.5,4.0,-12.0));
#1799=CARTESIAN_POINT('',(22.5,3.01,-12.0));
#1800=VECTOR('',#2072,1.0);
#1801=CARTESIAN_POINT('',(22.5,4.0,-20.5));
#1802=CARTESIAN_POINT('',(22.5,4.0,-16.5));
#1803=VECTOR('',#2073,10.0);
#1804=CARTESIAN_POINT('',(22.5,4.0,-20.5));
#1805=VECTOR('',#2074,1.0);
#1806=COLOUR_RGB('',0.901960790157318,0.890196084976196,0.792156875133514);
#1807=CARTESIAN_POINT('',(21.0,4.0,-22.0));
#1808=VECTOR('',#2075,10.0);
#1809=COLOUR_RGB('',0.901960790157318,0.890196084976196,0.792156875133514);
#1810=CARTESIAN_POINT('',(12.0,4.0,-22.5));
#1811=CARTESIAN_POINT('',(12.0,3.01,-22.5));
#1812=VECTOR('',#2076,1.0);
#1813=CARTESIAN_POINT('',(7.5,4.0,-22.5));
#1814=VECTOR('',#2077,10.0);
#1815=COLOUR_RGB('',0.901960790157318,0.890196084976196,0.792156875133514);
#1816=CARTESIAN_POINT('',(12.0,4.0,-19.5));
#1817=CARTESIAN_POINT('',(12.0,4.0,-17.5));
#1818=VECTOR('',#2078,10.0);
#1819=CARTESIAN_POINT('',(12.0,3.01,-19.5));
#1820=VECTOR('',#2079,1.0);
#1821=COLOUR_RGB('',0.901960790157318,0.890196084976196,0.792156875133514);
#1822=CARTESIAN_POINT('',(12.5,4.0,-19.5));
#1823=CARTESIAN_POINT('',(12.25,4.0,-19.5));
#1824=VECTOR('',#2080,10.0);
#1825=CARTESIAN_POINT('',(12.5,3.01,-19.5));
#1826=VECTOR('',#2081,1.0);
#1827=COLOUR_RGB('',0.901960790157318,0.890196084976196,0.792156875133514);
#1828=CARTESIAN_POINT('',(12.5,4.0,-16.0));
#1829=VECTOR('',#2082,10.0);
#1830=COLOUR_RGB('',0.901960790157318,0.890196084976196,0.792156875133514);
#1831=CARTESIAN_POINT('',(20.0,4.0,-12.0));
#1832=CARTESIAN_POINT('',(20.0,4.0,-11.5));
#1833=CARTESIAN_POINT('',(20.0,4.0,-12.25));
#1834=VECTOR('',#2083,10.0);
#1835=CARTESIAN_POINT('',(20.0,3.01,-12.0));
#1836=VECTOR('',#2084,1.0);
#1837=CARTESIAN_POINT('',(20.0,3.01,-11.5));
#1838=VECTOR('',#2085,1.0);
#1839=COLOUR_RGB('',0.901960790157318,0.890196084976196,0.792156875133514);
#1840=CARTESIAN_POINT('',(16.25,4.0,-11.5));
#1841=VECTOR('',#2086,10.0);
#1842=COLOUR_RGB('',0.901960790157318,0.890196084976196,0.792156875133514);
#1843=CARTESIAN_POINT('',(17.5,4.0,-12.0));
#1844=VECTOR('',#2087,10.0);
#1845=COLOUR_RGB('',0.596078455448151,0.596078455448151,0.596078455448151);
#1846=AXIS2_PLACEMENT_3D('',#2088,#2089,#2090);
#1847=AXIS2_PLACEMENT_3D('',#2091,#2092,#2093);
#1848=COLOUR_RGB('',0.596078455448151,0.596078455448151,0.596078455448151);
#1849=AXIS2_PLACEMENT_3D('',#2094,#2095,#2096);
#1850=COLOUR_RGB('',0.596078455448151,0.596078455448151,0.596078455448151);
#1851=COLOUR_RGB('',0.596078455448151,0.596078455448151,0.596078455448151);
#1852=AXIS2_PLACEMENT_3D('',#2097,#2098,#2099);
#1853=COLOUR_RGB('',0.596078455448151,0.596078455448151,0.596078455448151);
#1854=COLOUR_RGB('',0.847058832645416,0.372549027204514,0.254901975393295);
#1855=CARTESIAN_POINT('',(21.0,4.0,2.44929359829471E-16));
#1856=CARTESIAN_POINT('',(4.0,4.0,2.44929359829471E-16));
#1857=CARTESIAN_POINT('',(12.5,4.0,2.44929359829471E-16));
#1858=VECTOR('',#2100,1.0);
#1859=CARTESIAN_POINT('',(25.0,4.0,-4.0));
#1860=AXIS2_PLACEMENT_3D('',#2101,#2102,#2103);
#1861=CARTESIAN_POINT('',(25.0,4.0,-21.0));
#1862=CARTESIAN_POINT('',(25.0,4.0,-12.5));
#1863=VECTOR('',#2104,1.0);
#1864=CARTESIAN_POINT('',(21.0,4.0,-25.0));
#1865=AXIS2_PLACEMENT_3D('',#2105,#2106,#2107);
#1866=CARTESIAN_POINT('',(4.0,4.0,-25.0));
#1867=CARTESIAN_POINT('',(12.5,4.0,-25.0));
#1868=VECTOR('',#2108,1.0);
#1869=CARTESIAN_POINT('',(0.0,4.0,-21.0));
#1870=AXIS2_PLACEMENT_3D('',#2109,#2110,#2111);
#1871=CARTESIAN_POINT('',(0.0,4.0,-4.0));
#1872=CARTESIAN_POINT('',(0.0,4.0,-12.5));
#1873=VECTOR('',#2112,1.0);
#1874=AXIS2_PLACEMENT_3D('',#2113,#2114,#2115);
#1875=COLOUR_RGB('',0.847058832645416,0.372549027204514,0.254901975393295);
#1876=CARTESIAN_POINT('',(4.0,0.0,0.0));
#1877=CARTESIAN_POINT('',(21.0,0.0,0.0));
#1878=CARTESIAN_POINT('',(12.5,0.0,0.0));
#1879=VECTOR('',#2116,1.0);
#1880=CARTESIAN_POINT('',(21.0,0.0,0.0));
#1881=VECTOR('',#2117,1.0);
#1882=CARTESIAN_POINT('',(4.0,0.0,0.0));
#1883=VECTOR('',#2118,1.0);
#1884=COLOUR_RGB('',0.847058832645416,0.372549027204514,0.254901975393295);
#1885=CARTESIAN_POINT('',(0.0,1.28587913910472E-15,-21.0));
#1886=CARTESIAN_POINT('',(0.0,2.44929359829471E-16,-4.0));
#1887=CARTESIAN_POINT('',(0.0,7.65404249467096E-16,-12.5));
#1888=VECTOR('',#2119,1.0);
#1889=CARTESIAN_POINT('',(0.0,2.44929359829471E-16,-4.0));
#1890=VECTOR('',#2120,1.0);
#1891=CARTESIAN_POINT('',(0.0,1.28587913910472E-15,-21.0));
#1892=VECTOR('',#2121,1.0);
#1893=COLOUR_RGB('',0.847058832645416,0.372549027204514,0.254901975393295);
#1894=CARTESIAN_POINT('',(21.0,1.53080849893419E-15,-25.0));
#1895=CARTESIAN_POINT('',(21.0,1.53080849893419E-15,-25.0));
#1896=VECTOR('',#2122,1.0);
#1897=CARTESIAN_POINT('',(4.0,1.53080849893419E-15,-25.0));
#1898=CARTESIAN_POINT('',(12.5,1.53080849893419E-15,-25.0));
#1899=VECTOR('',#2123,1.0);
#1900=CARTESIAN_POINT('',(4.0,1.53080849893419E-15,-25.0));
#1901=VECTOR('',#2124,1.0);
#1902=COLOUR_RGB('',0.847058832645416,0.372549027204514,0.254901975393295);
#1903=CARTESIAN_POINT('',(25.0,2.44929359829471E-16,-4.0));
#1904=CARTESIAN_POINT('',(25.0,1.28587913910472E-15,-21.0));
#1905=CARTESIAN_POINT('',(25.0,7.65404249467096E-16,-12.5));
#1906=VECTOR('',#2125,1.0);
#1907=AXIS2_PLACEMENT_3D('',#2126,#2127,#2128);
#1908=AXIS2_PLACEMENT_3D('',#2129,#2130,#2131);
#1909=AXIS2_PLACEMENT_3D('',#2132,#2133,#2134);
#1910=AXIS2_PLACEMENT_3D('',#2135,#2136,#2137);
#1911=COLOUR_RGB('',0.847058832645416,0.372549027204514,0.254901975393295);
#1912=CARTESIAN_POINT('',(25.0,2.44929359829471E-16,-4.0));
#1913=VECTOR('',#2138,1.0);
#1914=CARTESIAN_POINT('',(25.0,1.28587913910472E-15,-21.0));
#1915=VECTOR('',#2139,1.0);
#1916=COLOUR_RGB('',0.847058832645416,0.372549027204514,0.254901975393295);
#1917=COLOUR_RGB('',0.847058832645416,0.372549027204514,0.254901975393295);
#1918=COLOUR_RGB('',0.847058832645416,0.372549027204514,0.254901975393295);
#1919=COLOUR_RGB('',0.847058832645416,0.372549027204514,0.254901975393295);
#1920=COLOUR_RGB('',0.847058832645416,0.372549027204514,0.254901975393295);
#1921=COLOUR_RGB('',0.749019622802734,0.749019622802734,0.749019622802734);
#1922=DIRECTION('',(-0.0,-1.0,-6.12323399573676E-17));
#1923=CARTESIAN_POINT('',(12.5,4.0,-15.1));
#1924=DIRECTION('',(0.0,-1.0,-6.12323399573676E-17));
#1925=DIRECTION('',(1.0,0.0,0.0));
#1926=DIRECTION('',(0.0,1.0,6.12323399573676E-17));
#1927=CARTESIAN_POINT('',(12.5,9.24608333356251E-16,-15.1));
#1928=DIRECTION('',(0.0,-1.0,-6.12323399573676E-17));
#1929=DIRECTION('',(1.0,0.0,0.0));
#1930=DIRECTION('',(-0.707106781186547,-0.707106781186548,-4.32978028117747E-17));
#1931=CARTESIAN_POINT('',(12.5,4.7,-15.1));
#1932=DIRECTION('',(0.0,1.0,6.12323399573676E-17));
#1933=DIRECTION('',(-1.0,0.0,0.0));
#1934=DIRECTION('',(-0.707106781186547,0.707106781186548,-4.32978028117746E-17));
#1935=CARTESIAN_POINT('',(12.5,4.01,-15.1));
#1936=DIRECTION('',(0.0,1.0,6.12323399573676E-17));
#1937=DIRECTION('',(-1.0,0.0,0.0));
#1938=DIRECTION('',(-0.0,1.0,6.12323399573676E-17));
#1939=CARTESIAN_POINT('',(12.5,-2.0,-15.1));
#1940=DIRECTION('',(-0.0,-1.0,-6.12323399573676E-17));
#1941=DIRECTION('',(-1.0,0.0,0.0));
#1942=DIRECTION('',(0.0,-1.0,-6.12323399573676E-17));
#1943=CARTESIAN_POINT('',(12.5,4.0,-15.1));
#1944=DIRECTION('',(-0.0,-1.0,-6.12323399573676E-17));
#1945=DIRECTION('',(-1.0,0.0,0.0));
#1946=DIRECTION('',(0.0,1.0,6.12323399573676E-17));
#1947=CARTESIAN_POINT('',(12.5,-0.00999999999999908,-15.1));
#1948=DIRECTION('',(-0.0,-1.0,-6.12323399573676E-17));
#1949=DIRECTION('',(-1.0,0.0,0.0));
#1950=DIRECTION('',(0.0,-1.0,-6.12323399573676E-17));
#1951=CARTESIAN_POINT('',(12.5,9.24608333356251E-16,-15.1));
#1952=DIRECTION('',(-0.0,-1.0,-6.12323399573676E-17));
#1953=DIRECTION('',(-1.0,0.0,0.0));
#1954=DIRECTION('',(-0.0,-1.0,-6.12323399573676E-17));
#1955=CARTESIAN_POINT('',(12.5,-0.00999999999999908,-15.1));
#1956=DIRECTION('',(-0.0,-1.0,-6.12323399573676E-17));
#1957=DIRECTION('',(-1.0,0.0,0.0));
#1958=DIRECTION('',(0.0,1.0,6.12323399573676E-17));
#1959=CARTESIAN_POINT('',(12.5,-0.199999999999999,-15.1));
#1960=DIRECTION('',(0.0,-1.0,-6.12323399573676E-17));
#1961=DIRECTION('',(1.0,0.0,0.0));
#1962=CARTESIAN_POINT('',(12.5,-0.199999999999999,-15.1));
#1963=DIRECTION('',(0.0,-1.0,-6.12323399573676E-17));
#1964=DIRECTION('',(1.0,0.0,0.0));
#1965=CARTESIAN_POINT('',(12.5,-0.00999999999999908,-15.1));
#1966=DIRECTION('',(-0.0,-1.0,-6.12323399573676E-17));
#1967=DIRECTION('',(-1.0,0.0,0.0));
#1968=DIRECTION('',(-1.0,0.0,0.0));
#1969=CARTESIAN_POINT('',(20.8,-0.199999999999999,-20.8));
#1970=DIRECTION('',(0.0,-1.0,-6.12323399573676E-17));
#1971=DIRECTION('',(1.0,0.0,0.0));
#1972=DIRECTION('',(0.0,6.12323399573676E-17,-1.0));
#1973=DIRECTION('',(1.0,-3.54070592043461E-32,5.78241158658936E-16));
#1974=CARTESIAN_POINT('',(27.8,-0.199999999999999,-19.7));
#1975=DIRECTION('',(-0.0,-1.0,-6.12323399573676E-17));
#1976=DIRECTION('',(-1.0,0.0,0.0));
#1977=DIRECTION('',(0.0,-6.12323399573676E-17,1.0));
#1978=CARTESIAN_POINT('',(27.8,-0.199999999999999,-16.7));
#1979=DIRECTION('',(-0.0,-1.0,-6.12323399573676E-17));
#1980=DIRECTION('',(-1.0,0.0,0.0));
#1981=DIRECTION('',(-1.0,1.77035296021731E-32,-2.89120579329468E-16));
#1982=DIRECTION('',(0.0,6.12323399573676E-17,-1.0));
#1983=CARTESIAN_POINT('',(20.8,-0.2,-4.2));
#1984=DIRECTION('',(0.0,-1.0,-6.12323399573676E-17));
#1985=DIRECTION('',(1.0,0.0,0.0));
#1986=DIRECTION('',(1.0,0.0,0.0));
#1987=CARTESIAN_POINT('',(4.2,-0.2,-4.2));
#1988=DIRECTION('',(0.0,-1.0,-6.12323399573676E-17));
#1989=DIRECTION('',(1.0,0.0,0.0));
#1990=DIRECTION('',(0.0,-6.12323399573676E-17,1.0));
#1991=CARTESIAN_POINT('',(4.2,-0.199999999999999,-20.8));
#1992=DIRECTION('',(0.0,-1.0,-6.12323399573676E-17));
#1993=DIRECTION('',(1.0,0.0,0.0));
#1994=DIRECTION('',(0.0,-6.12323399573676E-17,1.0));
#1995=DIRECTION('',(-1.0,1.77035296021731E-32,-2.89120579329468E-16));
#1996=CARTESIAN_POINT('',(27.8,-0.079999999999999,-16.7));
#1997=DIRECTION('',(-0.0,-1.0,-6.12323399573676E-17));
#1998=DIRECTION('',(-1.0,0.0,0.0));
#1999=DIRECTION('',(0.0,-6.12323399573676E-17,1.0));
#2000=CARTESIAN_POINT('',(27.8,-0.0799999999999988,-19.7));
#2001=DIRECTION('',(-0.0,-1.0,-6.12323399573676E-17));
#2002=DIRECTION('',(-1.0,0.0,0.0));
#2003=DIRECTION('',(1.0,-3.54070592043461E-32,5.78241158658936E-16));
#2004=DIRECTION('',(0.0,-1.0,-6.12323399573676E-17));
#2005=DIRECTION('',(0.0,-1.0,-6.12323399573676E-17));
#2006=DIRECTION('',(0.0,-1.0,-6.12323399573676E-17));
#2007=DIRECTION('',(0.0,-1.0,-6.12323399573676E-17));
#2008=DIRECTION('',(0.0,-1.0,-6.12323399573676E-17));
#2009=DIRECTION('',(0.0,-1.0,-6.12323399573676E-17));
#2010=DIRECTION('',(1.0,0.0,0.0));
#2011=DIRECTION('',(0.0,-1.0,-6.12323399573676E-17));
#2012=DIRECTION('',(0.0,1.0,6.12323399573676E-17));
#2013=DIRECTION('',(0.0,1.0,6.12323399573676E-17));
#2014=DIRECTION('',(0.0,-6.12323399573676E-17,1.0));
#2015=DIRECTION('',(0.0,-1.0,-6.12323399573676E-17));
#2016=DIRECTION('',(0.0,1.0,6.12323399573676E-17));
#2017=DIRECTION('',(-1.0,0.0,0.0));
#2018=DIRECTION('',(0.0,-1.0,-6.12323399573676E-17));
#2019=DIRECTION('',(0.0,1.0,6.12323399573676E-17));
#2020=DIRECTION('',(0.0,6.12323399573676E-17,-1.0));
#2021=DIRECTION('',(0.0,-1.0,-6.12323399573676E-17));
#2022=CARTESIAN_POINT('',(12.5,9.24608333356251E-16,-15.1));
#2023=DIRECTION('',(-0.0,-1.0,-6.12323399573676E-17));
#2024=DIRECTION('',(-1.0,0.0,0.0));
#2025=CARTESIAN_POINT('',(12.5,-0.00999999999999908,-15.1));
#2026=DIRECTION('',(-0.0,-1.0,-6.12323399573676E-17));
#2027=DIRECTION('',(-1.0,0.0,0.0));
#2028=CARTESIAN_POINT('',(4.2,2.57175827820944E-16,-4.2));
#2029=DIRECTION('',(0.0,1.0,6.12323399573676E-17));
#2030=DIRECTION('',(-1.0,0.0,0.0));
#2031=CARTESIAN_POINT('',(4.2,1.27363267111325E-15,-20.8));
#2032=DIRECTION('',(0.0,1.0,6.12323399573676E-17));
#2033=DIRECTION('',(-1.0,0.0,0.0));
#2034=CARTESIAN_POINT('',(20.8,1.27363267111325E-15,-20.8));
#2035=DIRECTION('',(0.0,1.0,6.12323399573676E-17));
#2036=DIRECTION('',(-1.0,0.0,0.0));
#2037=CARTESIAN_POINT('',(20.8,2.57175827820944E-16,-4.2));
#2038=DIRECTION('',(0.0,1.0,6.12323399573676E-17));
#2039=DIRECTION('',(-1.0,0.0,0.0));
#2040=CARTESIAN_POINT('',(12.5,9.24608333356251E-16,-15.1));
#2041=DIRECTION('',(0.0,-1.0,-6.12323399573676E-17));
#2042=DIRECTION('',(1.0,0.0,0.0));
#2043=DIRECTION('',(0.0,-6.12323399573676E-17,1.0));
#2044=DIRECTION('',(-1.0,1.05749083490313E-32,-1.72701359386135E-16));
#2045=DIRECTION('',(-1.72701359386135E-16,-6.12323399573676E-17,1.0));
#2046=DIRECTION('',(0.707106781186547,-4.32978028117747E-17,0.707106781186548));
#2047=DIRECTION('',(1.0,-1.05749083490313E-32,1.72701359386135E-16));
#2048=DIRECTION('',(1.72701359386135E-16,6.12323399573676E-17,-1.0));
#2049=DIRECTION('',(1.0,-1.27465413135646E-31,2.08166817117217E-15));
#2050=DIRECTION('',(0.0,-6.12323399573676E-17,1.0));
#2051=DIRECTION('',(-1.0,1.27465413135646E-31,-2.08166817117217E-15));
#2052=DIRECTION('',(1.72701359386135E-16,6.12323399573676E-17,-1.0));
#2053=DIRECTION('',(-0.707106781186548,4.32978028117747E-17,-0.707106781186548));
#2054=DIRECTION('',(-1.0,1.05749083490313E-32,-1.72701359386135E-16));
#2055=DIRECTION('',(1.15648231731787E-15,6.12323399573676E-17,-1.0));
#2056=DIRECTION('',(1.0,0.0,0.0));
#2057=CARTESIAN_POINT('',(12.5,4.01,-15.1));
#2058=DIRECTION('',(0.0,1.0,6.12323399573676E-17));
#2059=DIRECTION('',(-1.0,0.0,0.0));
#2060=DIRECTION('',(-1.92747052886312E-16,-6.12323399573676E-17,1.0));
#2061=DIRECTION('',(0.0,1.0,6.12323399573676E-17));
#2062=DIRECTION('',(0.0,1.0,6.12323399573676E-17));
#2063=DIRECTION('',(1.0,0.0,0.0));
#2064=DIRECTION('',(0.0,1.0,6.12323399573676E-17));
#2065=DIRECTION('',(0.0,1.0,6.12323399573676E-17));
#2066=DIRECTION('',(0.0,1.0,6.12323399573676E-17));
#2067=DIRECTION('',(1.68653671275523E-16,6.12323399573676E-17,-1.0));
#2068=DIRECTION('',(0.0,1.0,6.12323399573676E-17));
#2069=DIRECTION('',(-0.707106781186547,4.32978028117747E-17,-0.707106781186548));
#2070=DIRECTION('',(0.0,1.0,6.12323399573676E-17));
#2071=DIRECTION('',(-1.0,1.18023530681154E-32,-1.92747052886312E-16));
#2072=DIRECTION('',(0.0,1.0,6.12323399573676E-17));
#2073=DIRECTION('',(-1.92747052886312E-16,-6.12323399573676E-17,1.0));
#2074=DIRECTION('',(0.0,1.0,6.12323399573676E-17));
#2075=DIRECTION('',(0.707106781186548,-4.32978028117747E-17,0.707106781186548));
#2076=DIRECTION('',(0.0,1.0,6.12323399573676E-17));
#2077=DIRECTION('',(1.0,0.0,0.0));
#2078=DIRECTION('',(0.0,-6.12323399573676E-17,1.0));
#2079=DIRECTION('',(0.0,-1.0,-6.12323399573676E-17));
#2080=DIRECTION('',(1.0,0.0,0.0));
#2081=DIRECTION('',(0.0,-1.0,-6.12323399573676E-17));
#2082=DIRECTION('',(1.15648231731787E-15,6.12323399573676E-17,-1.0));
#2083=DIRECTION('',(0.0,-6.12323399573676E-17,1.0));
#2084=DIRECTION('',(0.0,-1.0,-6.12323399573676E-17));
#2085=DIRECTION('',(0.0,-1.0,-6.12323399573676E-17));
#2086=DIRECTION('',(1.0,-1.27465413135646E-31,2.08166817117217E-15));
#2087=DIRECTION('',(-1.0,1.27465413135646E-31,-2.08166817117217E-15));
#2088=CARTESIAN_POINT('',(12.5,4.0,-15.1));
#2089=DIRECTION('',(0.0,-1.0,-6.12323399573676E-17));
#2090=DIRECTION('',(1.0,0.0,0.0));
#2091=CARTESIAN_POINT('',(12.5,4.0,-15.1));
#2092=DIRECTION('',(-0.0,-1.0,-6.12323399573676E-17));
#2093=DIRECTION('',(-1.0,0.0,0.0));
#2094=CARTESIAN_POINT('',(12.5,-2.0,-15.1));
#2095=DIRECTION('',(-0.0,-1.0,-6.12323399573676E-17));
#2096=DIRECTION('',(-1.0,0.0,0.0));
#2097=CARTESIAN_POINT('',(12.5,4.7,-15.1));
#2098=DIRECTION('',(0.0,1.0,6.12323399573676E-17));
#2099=DIRECTION('',(-1.0,0.0,0.0));
#2100=DIRECTION('',(-1.0,0.0,0.0));
#2101=CARTESIAN_POINT('',(21.0,4.0,-4.0));
#2102=DIRECTION('',(-0.0,1.0,6.12323399573676E-17));
#2103=DIRECTION('',(1.0,0.0,0.0));
#2104=DIRECTION('',(0.0,-6.12323399573676E-17,1.0));
#2105=CARTESIAN_POINT('',(21.0,4.0,-21.0));
#2106=DIRECTION('',(-0.0,1.0,6.12323399573676E-17));
#2107=DIRECTION('',(1.0,0.0,0.0));
#2108=DIRECTION('',(1.0,0.0,0.0));
#2109=CARTESIAN_POINT('',(4.0,4.0,-21.0));
#2110=DIRECTION('',(-0.0,1.0,6.12323399573676E-17));
#2111=DIRECTION('',(1.0,0.0,0.0));
#2112=DIRECTION('',(0.0,6.12323399573676E-17,-1.0));
#2113=CARTESIAN_POINT('',(4.0,4.0,-4.0));
#2114=DIRECTION('',(-0.0,1.0,6.12323399573676E-17));
#2115=DIRECTION('',(1.0,0.0,0.0));
#2116=DIRECTION('',(1.0,0.0,0.0));
#2117=DIRECTION('',(0.0,1.0,6.12323399573676E-17));
#2118=DIRECTION('',(0.0,-1.0,-6.12323399573676E-17));
#2119=DIRECTION('',(0.0,-6.12323399573676E-17,1.0));
#2120=DIRECTION('',(0.0,1.0,6.12323399573676E-17));
#2121=DIRECTION('',(0.0,-1.0,-6.12323399573676E-17));
#2122=DIRECTION('',(0.0,-1.0,-6.12323399573676E-17));
#2123=DIRECTION('',(-1.0,0.0,0.0));
#2124=DIRECTION('',(0.0,1.0,6.12323399573676E-17));
#2125=DIRECTION('',(0.0,6.12323399573676E-17,-1.0));
#2126=CARTESIAN_POINT('',(21.0,2.44929359829471E-16,-4.0));
#2127=DIRECTION('',(-0.0,-1.0,-6.12323399573676E-17));
#2128=DIRECTION('',(-1.0,0.0,0.0));
#2129=CARTESIAN_POINT('',(4.0,2.44929359829471E-16,-4.0));
#2130=DIRECTION('',(-0.0,-1.0,-6.12323399573676E-17));
#2131=DIRECTION('',(-1.0,0.0,0.0));
#2132=CARTESIAN_POINT('',(4.0,1.28587913910472E-15,-21.0));
#2133=DIRECTION('',(-0.0,-1.0,-6.12323399573676E-17));
#2134=DIRECTION('',(-1.0,0.0,0.0));
#2135=CARTESIAN_POINT('',(21.0,1.28587913910472E-15,-21.0));
#2136=DIRECTION('',(-0.0,-1.0,-6.12323399573676E-17));
#2137=DIRECTION('',(-1.0,0.0,0.0));
#2138=DIRECTION('',(0.0,-1.0,-6.12323399573676E-17));
#2139=DIRECTION('',(0.0,1.0,6.12323399573676E-17));
#2140=PRESENTATION_LAYER_ASSIGNMENT('','',(#80,#82,#84,#86,#88,#90,#92,#94,#96,#98,#100,#102,#104,#106,#108,#110,#112,#114,#116,#118,#120,#122,#124,#126,#128,#130,#132,#134,#136,#138,#140,#142,#144,#146,#148,#150,#152,#154,#156,#158,#160,#162,#164,#166,#168,#170,#172,#174,#176,#178,#180,#182,#184,#186,#188,#190,#1060,#1061,#1062,#1065,#1066,#1067,#1070,#1071,#1072,#1075,#1076,#1077,#1080,#1081,#1082,#1084,#1085,#1087,#1088,#1089,#1090,#1091,#1092,#1093,#1094,#1095,#1096,#1097,#1098,#1099,#1100,#1102,#1103,#1104,#1105,#1106,#1107,#1109,#1110,#1112,#1113,#1115,#1117,#1120,#1121,#1122,#1124,#1125,#1126,#1128,#1129,#1130,#1132,#1133,#1134,#1136,#1137,#1140,#1142,#1144,#1146,#1148,#1150,#1151,#1152,#1153,#1154,#1155,#1156,#1157,#1158,#1159,#1160,#1161,#1162,#1163,#1164,#1166,#1167,#1168,#1170,#1171,#1172,#1174,#1175,#1176,#1178,#1179,#1181,#1183,#1184,#1185,#1187,#1189,#1190,#1192,#1193,#1195,#1196,#1198,#1200,#1201,#1202,#1204,#1206,#1208,#1209,#1211,#1214,#1217,#1218,#1219,#1220,#1221,#1222,#1223,#1224,#1226,#1227,#1228,#1230,#1231,#1232,#1234,#1235,#1236,#1238,#1239,#1240,#1241,#1242,#1244,#1245,#1253,#1254,#1256,#1258,#1262,#1265,#1267,#1274,#1276,#1280,#1281,#1283,#1285,#1289,#1290,#1292,#1294,#1301,#1302,#1304,#1306,#1308,#1310,#1312,#1314,#1316,#1318,#1320,#1322,#1324,#1326,#1330,#1331,#1333,#1335,#1337,#1339,#1354,#1355,#1360,#1362,#1366,#1368,#1372,#1374,#1392,#1393,#1395,#1397,#1399,#1401,#1403,#1405,#1407,#1409,#1411,#1413,#1415,#1417,#1422,#1423,#1428,#1429,#1434,#1436,#1440,#1446,#1448,#1454,#1458,#1462,#1468,#1469,#1487,#1488,#1490,#1492,#1494,#1496,#1498,#1500,#1504,#1505,#1510,#1511,#1516,#1518,#1522,#1523));
ENDSEC;
END-ISO-10303-21;
